<svg width="192" height="191" viewBox="0 0 192 191" fill="none" xmlns="http://www.w3.org/2000/svg">
<path d="M130.743 190.97H60.6448V184.615C62.6253 184.615 64.3006 184.513 65.9623 184.615C67.3867 184.73 68.031 184.269 68.438 182.865C70.5338 175.594 72.7314 168.357 74.895 161.1C75.0646 160.523 75.207 159.94 75.424 159.139H73.0162C53.5728 159.139 34.1295 159.139 14.6861 159.139C13.0743 159.176 11.4641 159.017 9.89084 158.665C3.86792 157.111 0.273151 152.221 0.266369 145.676C0.266369 110.131 0.266369 74.5811 0.266369 39.0269C0.259496 38.2812 0.300269 37.5359 0.38845 36.7954C1.1481 30.7318 5.53641 26.2892 11.6136 25.6788C14.1096 25.4278 16.6531 25.6381 19.3186 25.6381C19.3186 21.3583 19.1626 17.499 19.3796 13.6804C19.4244 11.46 19.8845 9.26762 20.7362 7.21658C23.1575 2.06183 27.5866 1.92001e-10 33.1618 1.92001e-10C74.8566 1.92001e-10 116.554 1.92001e-10 158.253 1.92001e-10C158.809 1.92001e-10 159.372 -4.30525e-05 159.928 0.0406524C166.338 0.501867 171.174 4.89021 171.831 11.293C172.211 15.0437 172.021 18.8623 172.082 22.647C172.082 23.5491 172.082 24.4511 172.082 25.4278C174.192 25.4278 175.989 25.4278 177.793 25.4278C181.815 25.5024 185.492 26.6487 187.967 29.9586C189.324 31.7899 190.104 34.0824 191.141 36.1646V148.416C190.334 150.207 189.785 152.16 188.666 153.761C185.905 157.83 181.775 159.187 177.034 159.146C157.473 159.146 137.91 159.146 118.344 159.146H116.072C116.079 159.453 116.11 159.76 116.167 160.062C118.514 167.902 120.854 175.743 123.268 183.563C123.408 183.826 123.609 184.051 123.853 184.221C124.097 184.391 124.378 184.5 124.672 184.54C126.632 184.655 128.599 184.588 130.729 184.588L130.743 190.97ZM19.305 31.8238H14.3334C8.97518 31.8238 6.5945 34.2112 6.5945 39.5559V133.501H184.8V131.677C184.8 100.848 184.8 70.0209 184.8 39.1964C184.813 38.6987 184.8 38.2006 184.759 37.7043C184.481 34.9506 182.643 32.5427 180.011 32.1494C177.38 31.756 174.857 31.8509 172.082 31.7153V127.173H165.714V23.7932C165.714 20.3138 165.754 16.8275 165.714 13.3481C165.653 8.96651 163.082 6.42981 158.721 6.37555H33.4331C32.8159 6.37555 32.1851 6.37559 31.5747 6.41628C30.1671 6.51489 28.8346 7.08868 27.7958 8.0437C26.757 8.99873 26.0734 10.2784 25.857 11.6728C25.7134 12.6562 25.6544 13.6501 25.6807 14.6435C25.6807 51.3779 25.6807 88.1123 25.6807 124.847V127.173H19.3186L19.305 31.8238ZM184.8 140.202H6.5945V144.828C6.5945 150.532 8.88022 152.798 14.6454 152.798H176.79C177.596 152.809 178.403 152.766 179.204 152.669C180.675 152.522 182.044 151.852 183.061 150.78C184.078 149.708 184.676 148.305 184.745 146.829C184.874 144.665 184.766 142.488 184.766 140.189L184.8 140.202ZM74.6101 184.493H116.71C116.704 184.265 116.682 184.038 116.642 183.814C114.295 175.974 111.969 168.126 109.547 160.306C109.399 160.017 109.184 159.768 108.919 159.579C108.655 159.39 108.349 159.267 108.028 159.221C99.8277 159.153 91.6276 159.221 83.4275 159.153C83.2325 159.126 83.034 159.138 82.844 159.19C82.654 159.241 82.4765 159.331 82.3223 159.454C82.1682 159.576 82.0405 159.729 81.9472 159.902C81.8538 160.075 81.7967 160.266 81.7793 160.462C81.1824 162.673 80.4567 164.857 79.7988 167.055C78.0489 172.813 76.3397 178.571 74.5762 184.493H74.6101Z" fill="#A93FFD"/>
<path d="M69.5159 93.9658C71.1573 101.298 72.7037 108.25 74.2637 115.209C74.4129 115.887 74.596 116.565 74.7113 117.203C75.0505 119.156 74.1891 120.709 72.2493 121.177C67.9084 122.236 63.5472 123.212 59.1725 124.114C57.0563 124.548 55.7337 123.341 55.1436 120.723C53.855 114.971 52.5776 109.218 51.3115 103.461C51.0198 102.105 50.6332 100.809 50.4501 99.4597C50.267 97.8455 49.4802 97.235 47.8863 96.9501C39.0689 95.3562 32.049 86.7152 32.2118 77.769C32.3949 67.5952 38.4789 60.1344 48.4357 57.8283C52.729 56.838 57.0495 55.9631 61.3226 54.8914C62.9355 54.5055 64.4796 53.8741 65.9008 53.0194C77.9602 45.484 89.9518 37.8468 102.011 30.325C103.402 29.4568 103.829 28.6904 103.402 27.0761C102.904 25.3513 102.675 23.56 102.723 21.7654C102.864 19.4801 103.813 17.3191 105.399 15.6681C106.985 14.0171 109.107 12.9833 111.385 12.7513C116.132 12.2426 120.623 14.9556 121.823 19.6085C123.729 26.9879 125.309 34.4623 126.978 41.9096C131.169 60.6159 135.348 79.3245 139.512 98.0353C140.869 104.024 138.488 108.935 133.333 110.753C130.872 111.612 128.171 111.465 125.818 110.341C123.465 109.218 121.651 107.211 120.772 104.757C120.507 103.997 120.351 103.197 120.161 102.417C119.429 99.324 119.436 99.3173 116.363 98.9306C102.316 97.1807 88.2697 95.4173 74.2162 93.7352C72.7444 93.5589 71.2048 93.8708 69.5159 93.9658ZM117.977 92.7314C113.704 73.5774 109.506 54.7829 105.287 35.8595C104.873 36.063 104.609 36.1715 104.338 36.3275C92.8072 43.612 81.2769 50.9236 69.6651 58.1538C68.5528 58.8321 68.7223 59.585 68.9258 60.4938C70.7842 68.85 72.6901 77.1993 74.4875 85.5893C74.8063 87.0544 75.4439 87.5563 76.9225 87.7259C84.5054 88.5805 92.0747 89.5639 99.6509 90.5067L117.977 92.7314ZM62.5705 61.111C57.4158 62.3387 52.451 63.2272 47.6964 64.7397C42.3856 66.4354 39.3131 70.471 38.7298 75.9852C38.099 81.8996 40.5611 86.4778 45.7566 89.4757C48.0556 90.8874 50.7834 91.4311 53.448 91.0086C58.4739 90.1201 63.4591 88.9738 68.5596 87.9565C66.5587 78.8746 64.5782 70.1251 62.5705 61.111ZM109.045 23.1286C109.099 23.4271 109.194 24.1054 109.343 24.7633C114.376 47.3718 119.411 69.9623 124.448 92.5347C125.18 95.8039 125.859 99.0866 126.713 102.322C126.812 102.766 127 103.186 127.265 103.557C127.53 103.927 127.867 104.24 128.256 104.478C128.644 104.715 129.077 104.872 129.527 104.938C129.978 105.005 130.437 104.98 130.878 104.865C132.682 104.499 133.794 102.831 133.523 100.796C133.448 100.185 133.292 99.5818 133.157 98.9713C128.246 76.928 123.333 54.8846 118.418 32.8413C117.611 29.2058 116.845 25.5636 115.929 21.9892C115.762 21.0877 115.246 20.2888 114.492 19.7665C113.739 19.2443 112.81 19.0412 111.907 19.2015C110.205 19.4118 109.045 20.8768 109.045 23.0947V23.1286ZM60.8885 117.257L67.8474 115.663C66.301 108.813 64.8156 102.22 63.3166 95.5868L56.3848 97.1401C57.8974 103.848 59.3488 110.346 60.8749 117.223L60.8885 117.257Z" fill="#A93FFD"/>
<path d="M153.504 51.6426C153.993 53.7791 154.413 55.6443 154.902 57.8215L138.495 61.5112C138.013 59.4086 137.559 57.4417 137.07 55.3051L153.504 51.6426Z" fill="#A93FFD"/>
<path d="M142.008 88.7903L144.85 83.1201L157.533 89.4551L154.739 95.1524L142.008 88.7903Z" fill="#A93FFD"/>
<path d="M138.027 17.2817L142.219 21.2157L132.933 30.5281L128.945 26.3433L138.027 17.2817Z" fill="#A93FFD"/>
<path d="M44.9023 12.812H51.0406V19.0045H44.9023V12.812Z" fill="#A93FFD"/>
<path d="M38.2352 18.9705H32.1309V12.8662H38.2352V18.9705Z" fill="#A93FFD"/>
<path d="M63.7454 19.0251H57.6953V12.853H63.7454V19.0251Z" fill="#A93FFD"/>
</svg>
