<svg width="142" height="127" viewBox="0 0 142 127" fill="none" xmlns="http://www.w3.org/2000/svg">
<path d="M27.13 85.5417H20.93C20.93 87.0917 20.93 88.6017 20.93 90.1117C20.93 91.2017 20.93 92.2917 20.88 93.3817C20.88 94.0717 20.56 94.4717 19.79 94.4717C17.94 94.4717 16.09 94.5217 14.24 94.5317H2.73999C2.33999 94.5317 1.94999 94.5317 1.54999 94.5317C0.149988 94.4317 0.109966 94.4117 0.0899658 93.0317C0.0366325 90.0183 0.00666667 87.0184 0 84.0317C0 81.0317 0.07 78.0317 0 75.1117C0 74.1117 0.369966 73.7817 1.33997 73.7817C7.15997 73.7817 12.97 73.7217 18.79 73.6917C19.08 73.6917 19.38 73.7617 19.67 73.7617C20.53 73.7617 20.84 74.1917 20.84 74.9917C20.84 77.1417 20.84 79.2917 20.84 81.4417V82.6817H27.01V81.2817C27.01 58.4417 26.9933 35.6084 26.96 12.7817C26.8761 10.2307 27.5739 7.71497 28.96 5.57169C30.06 3.79166 31.6171 2.3389 33.4689 1.3646C35.3208 0.390298 37.3999 -0.0699284 39.49 0.0317136H59.49H100.92C103.27 -0.131068 105.62 0.334879 107.73 1.38169C111.64 3.62169 114.11 6.87172 114.16 11.4717C114.26 19.6317 114.16 27.7917 114.16 35.9517V44.7717H120.44V38.5217C120.44 35.8917 120.44 35.8917 123.02 35.8917H138.68C139.14 35.8917 139.61 35.8917 140.07 35.8917C140.94 35.8917 141.31 36.2217 141.31 37.1217C141.31 43.2283 141.31 49.3417 141.31 55.4617C141.31 56.2117 141 56.5617 140.31 56.6217C139.949 56.6715 139.585 56.7016 139.22 56.7117L123.16 56.7817H122.49C120.49 56.7217 120.4 56.6417 120.37 54.7017C120.37 52.4317 120.37 50.1517 120.37 47.7917H114.07C114.07 48.3917 114.07 48.9417 114.07 49.5017C114.07 69.9483 114.103 90.3984 114.17 110.852C114.17 112.472 114.09 114.092 114.17 115.712C114.27 119.792 110.78 124.612 106.42 126.112C104.781 126.624 103.066 126.854 101.35 126.792H47.83C44.75 126.792 41.68 126.792 38.61 126.792C36.5979 126.801 34.6203 126.269 32.884 125.252C31.1477 124.236 29.7165 122.771 28.74 121.012C27.6169 119.214 27.037 117.131 27.07 115.012C27.13 105.532 27.07 96.0117 27.13 86.5617V85.5417ZM111.13 44.8217V22.8217H30.06V82.6617C31.14 82.6617 32.14 82.6017 33.12 82.6617C33.6687 82.6832 34.1955 82.8833 34.62 83.2317C37.36 85.9517 40.05 88.7217 42.73 91.5117C43.6 92.4217 43.51 92.7617 42.47 93.8317C41.74 94.5917 41.31 93.8317 40.81 93.4817C40.5488 93.2823 40.3076 93.0579 40.09 92.8117C38.02 90.7217 35.88 88.7017 33.92 86.5017C32.76 85.1917 31.46 85.4417 30.06 85.5017V103.982H61.2V101.982C61.2 95.5717 61.2 89.1617 61.27 82.7517C61.2891 81.6668 60.9362 80.6081 60.27 79.7517C59.03 78.1217 57.85 76.4517 56.71 74.7517C56.0094 73.7796 55.616 72.62 55.5804 71.4223C55.5447 70.2247 55.8685 69.0438 56.51 68.0317C57 67.2117 57.51 66.4217 58.08 65.6317C60.98 61.2517 63.85 56.8617 66.79 52.5117C68.79 49.5917 72.05 49.5117 74.2 52.3417C74.34 52.5217 74.47 52.7117 74.6 52.9017L78.31 58.5217C80.31 61.5217 82.31 64.4517 84.21 67.4417C85.0509 68.5433 85.5065 69.8908 85.5065 71.2767C85.5065 72.6626 85.0509 74.0101 84.21 75.1117C83.21 76.5117 82.27 77.9517 81.21 79.2917C80.3369 80.3287 79.8682 81.6463 79.89 83.0017C79.89 89.6117 79.89 96.2217 79.83 102.832V104.032H111.11V47.7317C110.24 47.7317 109.49 47.7317 108.73 47.7317C108.482 47.7592 108.25 47.8682 108.07 48.0417C107.54 48.5417 107.07 49.0417 106.54 49.6017C104.54 51.6017 102.54 53.7117 100.54 55.7417C99.79 56.4917 99.23 56.4817 98.54 55.8517C97.72 55.0917 97.7 54.7917 98.42 53.8517C98.5592 53.6693 98.7095 53.4956 98.87 53.3317C101.45 50.6717 104.01 48.0117 106.63 45.3917C107.016 45.0578 107.501 44.8609 108.01 44.8317C109.02 44.7617 110.01 44.8217 111.17 44.8217H111.13ZM111.02 19.8217C111.02 16.7717 111.12 13.8217 111.02 10.9017C110.882 9.03232 110.064 7.27828 108.72 5.97172C106.53 3.68172 103.72 3.06168 100.72 3.06168C86.61 3.06168 72.51 3.06168 58.41 3.06168C51.7433 3.06168 45.1033 3.09833 38.49 3.17167C36.4501 3.22879 34.5129 4.079 33.09 5.54166C32.2096 6.32534 31.5003 7.28222 31.0065 8.35245C30.5126 9.42268 30.2449 10.5833 30.22 11.7617C30.22 14.4217 30.22 17.0817 30.22 19.8217H111.02ZM111.2 106.922H30.97C30.48 106.922 30.09 106.872 30.1 107.612C30.15 109.992 30.1 112.372 30.1 114.742C30.0879 116.088 30.3919 117.418 30.9877 118.625C31.5834 119.832 32.4542 120.883 33.53 121.692C35.4136 123.113 37.732 123.838 40.09 123.742C60.61 123.742 81.09 123.742 101.64 123.692C103.052 123.658 104.446 123.363 105.75 122.822C106.85 122.385 107.839 121.711 108.646 120.846C109.454 119.982 110.06 118.949 110.42 117.822C111.74 114.312 110.78 110.652 111.24 106.922H111.2ZM69.1 54.7117L68.88 54.6417C68.735 54.8014 68.5981 54.9682 68.47 55.1417L66.13 58.6917C63.85 62.1617 61.57 65.6917 59.26 69.0917C58.7714 69.7251 58.5131 70.506 58.5276 71.3058C58.5422 72.1056 58.8287 72.8765 59.34 73.4917C60.61 75.2617 61.82 77.0717 63.11 78.8317C63.2344 78.9765 63.3875 79.094 63.5596 79.1766C63.7318 79.2592 63.9192 79.3052 64.11 79.3117C68.3967 79.3117 72.69 79.3117 76.99 79.3117C77.2068 79.2968 77.4185 79.2387 77.6125 79.1408C77.8066 79.043 77.9792 78.9072 78.12 78.7417C79.26 77.2417 80.27 75.6517 81.43 74.1717C82.1366 73.3985 82.5374 72.3946 82.5577 71.3475C82.5779 70.3003 82.2161 69.2815 81.54 68.4817C78.8 64.4817 76.16 60.4217 73.47 56.3817C73.01 55.6817 72.54 54.9917 72.01 54.2117C72.01 56.8017 72.09 59.2117 72.01 61.6717C71.95 63.1517 72.11 64.2217 73.57 65.0917C74.3326 65.6466 74.8941 66.4343 75.1701 67.3362C75.4461 68.238 75.4214 69.2051 75.1 70.0917C74.7718 71.0531 74.1506 71.8875 73.3237 72.4776C72.4968 73.0677 71.5059 73.3839 70.49 73.3817C69.4382 73.3751 68.4207 73.0067 67.6085 72.3384C66.7963 71.67 66.2389 70.7426 66.03 69.7117C65.7602 68.7979 65.8116 67.8192 66.1755 66.9386C66.5394 66.058 67.1938 65.3285 68.03 64.8717C68.4316 64.674 68.7592 64.3525 68.9644 63.9547C69.1696 63.5568 69.2417 63.1036 69.17 62.6617C69.09 59.9817 69.14 57.3817 69.14 54.7117H69.1ZM76.97 103.862V82.5017H64.14V103.862H76.97ZM123.23 53.7817C123.37 53.8317 123.43 53.8817 123.49 53.8817C128.21 53.8817 132.94 53.8817 137.66 53.8817C138.33 53.8817 138.38 53.5317 138.37 53.0017C138.37 50.6917 138.37 48.3817 138.37 46.0617V38.7117H123.25L123.23 53.7817ZM2.89001 76.5117V91.7217H17.3C17.94 91.7217 18.04 91.3917 18.03 90.8417C18.03 86.7217 18.03 82.5917 18.03 78.4717V76.4717L2.89001 76.5117ZM72.4 68.7517C72.4351 68.5308 72.4214 68.3048 72.3597 68.0898C72.2981 67.8748 72.19 67.6759 72.0432 67.5071C71.8964 67.3384 71.7144 67.2039 71.5099 67.1131C71.3055 67.0223 71.0836 66.9774 70.86 66.9817C69.55 66.9217 68.8 67.4717 68.75 68.5117C68.7365 69.0096 68.9201 69.4928 69.2609 69.8561C69.6017 70.2193 70.0722 70.4334 70.57 70.4517C71.0371 70.4653 71.4909 70.2946 71.8333 69.9765C72.1756 69.6585 72.3792 69.2185 72.4 68.7517Z" fill="#A93FFD"/>
<path d="M82.8402 41.3819C85.7444 42.8331 88.3925 44.7482 90.6802 47.0519C94.1381 50.5522 96.5607 54.9406 97.6802 59.7319C97.7433 60.1451 97.9184 60.5331 98.1863 60.8539C98.4542 61.1748 98.8049 61.4161 99.2002 61.5519C100.457 62.0593 101.47 63.0313 102.028 64.266C102.587 65.5006 102.649 66.903 102.2 68.1819C101.722 69.4874 100.748 70.552 99.4904 71.1453C98.2328 71.7385 96.7921 71.8127 95.4802 71.3519C94.5308 71.0371 93.6957 70.4485 93.08 69.6603C92.4644 68.872 92.0957 67.9192 92.0202 66.9219C91.8624 65.9983 91.9904 65.0485 92.3872 64.1996C92.7839 63.3508 93.4304 62.6433 94.2402 62.1719C95.2402 61.5619 95.2402 61.0219 94.9502 60.0419C93.2534 53.9873 89.3877 48.769 84.0902 45.3819C81.6724 43.8929 79.0472 42.7707 76.3002 42.0519C76.1104 42.0467 75.9218 42.0845 75.7487 42.1624C75.5755 42.2403 75.4222 42.3564 75.3002 42.5019C74.3002 43.8019 73.2102 44.9619 71.4402 45.1919C70.4049 45.3673 69.3407 45.2195 68.3924 44.7686C67.444 44.3177 66.6577 43.5856 66.1402 42.6719C65.7002 41.9819 65.3102 41.9119 64.5302 42.1319C59.2837 43.5056 54.609 46.51 51.1802 50.7119C48.8493 53.5948 47.1463 56.9327 46.1802 60.5119C46.1169 60.6407 46.0805 60.7809 46.073 60.9242C46.0656 61.0675 46.0873 61.2108 46.1369 61.3454C46.1864 61.48 46.2627 61.6032 46.3613 61.7075C46.4598 61.8117 46.5785 61.8949 46.7102 61.9519C47.8106 62.5809 48.6381 63.5966 49.0317 64.8015C49.4253 66.0063 49.357 67.3145 48.8402 68.4719C48.3048 69.6978 47.3272 70.677 46.1023 71.2144C44.8773 71.7519 43.4948 71.8081 42.2302 71.3719C41.2689 71.0053 40.431 70.374 39.8134 69.5511C39.1958 68.7283 38.8237 67.7474 38.7402 66.7219C38.6628 65.6666 38.9223 64.614 39.4811 63.7155C40.04 62.817 40.8694 62.1191 41.8502 61.7219C42.2573 61.578 42.6186 61.3278 42.8964 60.9972C43.1742 60.6666 43.3585 60.2677 43.4302 59.8419C44.3711 56.1006 46.071 52.5927 48.4243 49.5358C50.7776 46.479 53.734 43.9384 57.1102 42.0719C57.4102 41.9019 57.7002 41.7019 58.1602 41.4119C54.0602 41.4119 50.1602 41.4119 46.3002 41.4119C45.999 41.4787 45.7324 41.6529 45.5502 41.9019C45.1802 42.3619 44.9102 42.9019 44.5502 43.3719C43.7854 44.2955 42.7285 44.9306 41.554 45.1724C40.3795 45.4142 39.1576 45.2482 38.0902 44.7019C37.0454 44.1179 36.2225 43.2055 35.7488 42.1063C35.2751 41.0071 35.1772 39.7824 35.4702 38.6219C35.809 37.455 36.5357 36.4385 37.5302 35.7404C38.5247 35.0422 39.7276 34.7041 40.9402 34.7819C41.855 34.8161 42.7414 35.1084 43.497 35.6251C44.2526 36.1418 44.8465 36.8618 45.2102 37.7019C45.331 38.0172 45.5548 38.2825 45.8451 38.455C46.1355 38.6274 46.4755 38.6968 46.8102 38.6519C52.6569 38.6052 58.5035 38.6052 64.3502 38.6519C64.692 38.6823 65.0344 38.6014 65.3264 38.4211C65.6184 38.2409 65.8442 37.9711 65.9702 37.6519C66.3969 36.806 67.0479 36.0936 67.852 35.5926C68.6561 35.0915 69.5824 34.8211 70.5298 34.8108C71.4772 34.8005 72.4092 35.0506 73.224 35.5341C74.0389 36.0175 74.7051 36.7155 75.1502 37.5519C75.3176 37.9128 75.5965 38.2106 75.9456 38.4014C76.2948 38.5922 76.696 38.6659 77.0902 38.6119C82.8035 38.5652 88.5169 38.5652 94.2302 38.6119C94.6147 38.653 95.0023 38.5693 95.3355 38.373C95.6687 38.1767 95.9299 37.8782 96.0802 37.5219C96.6797 36.3654 97.6928 35.4772 98.9178 35.0342C100.143 34.5913 101.49 34.6262 102.69 35.1319C103.849 35.6406 104.793 36.5397 105.358 37.6725C105.922 38.8053 106.072 40.1002 105.78 41.3319C105.498 42.3182 104.941 43.2038 104.174 43.8854C103.407 44.5671 102.463 45.0167 101.45 45.1819C100.386 45.3988 99.2796 45.2515 98.3092 44.7636C97.3388 44.2757 96.5608 43.4755 96.1002 42.4919C95.9669 42.1129 95.7044 41.793 95.3589 41.5883C95.0133 41.3835 94.6066 41.3068 94.2102 41.3719C90.7102 41.3719 87.2102 41.3719 83.7102 41.3719C83.4902 41.3819 83.3102 41.3819 82.8402 41.3819ZM44.0902 68.8319C44.7198 68.796 45.3116 68.5197 45.7433 68.0601C46.1751 67.6004 46.4138 66.9925 46.4102 66.3619C46.4185 66.0393 46.357 65.7187 46.2299 65.4221C46.1028 65.1254 45.9131 64.8597 45.6738 64.6432C45.4345 64.4267 45.1512 64.2644 44.8434 64.1675C44.5355 64.0707 44.2104 64.0415 43.8902 64.0819C43.2824 64.1204 42.71 64.3812 42.2822 64.8146C41.8543 65.248 41.6009 65.8237 41.5702 66.4319C41.591 67.0853 41.866 67.7049 42.3366 68.1587C42.8073 68.6126 43.4364 68.8648 44.0902 68.8619V68.8319ZM40.6002 37.6019C39.9677 37.6016 39.36 37.848 38.9062 38.2887C38.4525 38.7294 38.1884 39.3296 38.1702 39.9619C38.1927 40.6115 38.4616 41.2282 38.9221 41.6869C39.3827 42.1456 40.0005 42.412 40.6502 42.4319C41.2806 42.3907 41.8702 42.1056 42.294 41.637C42.7177 41.1685 42.9423 40.5532 42.9202 39.9219C42.9229 39.6178 42.8646 39.3164 42.7486 39.0353C42.6326 38.7543 42.4613 38.4994 42.245 38.2858C42.0286 38.0722 41.7715 37.9043 41.4889 37.7919C41.2064 37.6796 40.9042 37.6252 40.6002 37.6319V37.6019ZM97.1602 68.8219C97.7748 68.8086 98.3624 68.5666 98.8081 68.1431C99.2538 67.7196 99.5256 67.1451 99.5702 66.5319C99.5968 66.2183 99.5574 65.9026 99.4544 65.6052C99.3514 65.3078 99.1871 65.0354 98.9723 64.8054C98.7574 64.5755 98.4967 64.3931 98.2069 64.2702C97.9172 64.1473 97.6049 64.0866 97.2902 64.0919C96.6558 64.0558 96.0323 64.2685 95.5523 64.685C95.0724 65.1014 94.7738 65.6887 94.7202 66.3219C94.7198 66.9776 94.9739 67.6078 95.4291 68.0798C95.8843 68.5517 96.5049 68.8285 97.1602 68.8519V68.8219ZM70.6302 37.5719C70.0196 37.6006 69.4414 37.8548 69.0073 38.2852C68.5732 38.7155 68.3141 39.2916 68.2802 39.9019C68.2762 40.2319 68.3377 40.5593 68.4609 40.8655C68.5841 41.1716 68.7667 41.4503 68.9982 41.6855C69.2297 41.9207 69.5055 42.1078 69.8096 42.2359C70.1137 42.364 70.4402 42.4306 70.7702 42.4319C71.3775 42.3564 71.9381 42.0677 72.3521 41.6171C72.7661 41.1664 73.0064 40.5834 73.0302 39.9719C72.9982 39.3486 72.7342 38.7597 72.2901 38.3212C71.846 37.8826 71.2539 37.626 70.6302 37.6019V37.5719ZM98.3502 39.8819C98.3246 40.2121 98.3691 40.5441 98.4808 40.856C98.5925 41.1678 98.7689 41.4525 98.9983 41.6914C99.2278 41.9303 99.5051 42.118 99.8122 42.2421C100.119 42.3663 100.449 42.4242 100.78 42.4119C101.391 42.3563 101.961 42.0798 102.382 41.6343C102.804 41.1888 103.048 40.6048 103.07 39.9919C103.073 39.3622 102.828 38.7567 102.389 38.3058C101.949 37.855 101.35 37.595 100.72 37.5819C100.1 37.5869 99.5062 37.8327 99.0639 38.2675C98.6217 38.7023 98.3657 39.292 98.3502 39.9119V39.8819Z" fill="#A93FFD"/>
<path d="M70.69 10.0815H81.49C82.93 10.0815 83.49 10.9716 82.86 12.2816C82.7604 12.419 82.6336 12.5344 82.4873 12.6204C82.341 12.7065 82.1785 12.7614 82.01 12.7816C81.01 12.8616 80.09 12.8615 79.14 12.8615H59.9099C59.1899 12.8615 58.43 12.9215 58.24 11.8615C58.02 10.6515 58.46 10.0415 59.69 10.0415H70.69V10.0815Z" fill="#A93FFD"/>
<path d="M76.8804 115.432C76.8921 116.269 76.73 117.099 76.4043 117.87C76.0787 118.641 75.5965 119.336 74.9884 119.912C74.3803 120.487 73.6594 120.93 72.8714 121.212C72.0834 121.494 71.2454 121.61 70.4104 121.552C68.7976 121.515 67.2641 120.845 66.1414 119.687C65.0186 118.528 64.3968 116.975 64.4104 115.362C64.4205 113.726 65.0693 112.16 66.2182 110.996C67.3671 109.832 68.9253 109.163 70.5604 109.132C71.3935 109.114 72.2216 109.265 72.995 109.575C73.7685 109.885 74.4713 110.348 75.0614 110.936C75.6516 111.525 76.1169 112.226 76.4295 112.999C76.742 113.771 76.8954 114.599 76.8804 115.432ZM73.8804 115.302C73.9014 114.866 73.8318 114.43 73.676 114.022C73.5202 113.615 73.2817 113.244 72.9754 112.933C72.6692 112.622 72.3018 112.378 71.8965 112.216C71.4911 112.054 71.0566 111.977 70.6204 111.992C70.1659 111.989 69.7155 112.078 69.2966 112.254C68.8777 112.431 68.4991 112.691 68.1838 113.018C67.8685 113.346 67.6232 113.734 67.4627 114.159C67.3023 114.584 67.23 115.038 67.2504 115.492C67.2919 116.389 67.6819 117.235 68.3374 117.849C68.9929 118.464 69.8621 118.798 70.7604 118.782C71.1993 118.772 71.6316 118.673 72.0307 118.491C72.4299 118.308 72.7876 118.046 73.0816 117.72C73.3757 117.394 73.6 117.011 73.7408 116.595C73.8816 116.179 73.9359 115.739 73.9004 115.302H73.8804Z" fill="#A93FFD"/>
<path d="M130.931 47.5215C132.721 47.5215 134.501 47.5215 136.281 47.5215C137.091 47.5215 137.391 47.7615 137.371 48.5915C137.371 50.3415 137.371 50.3415 135.631 50.3415C132.331 50.3415 129.031 50.3415 125.731 50.3415C125.281 50.3415 124.521 50.1714 124.451 49.9214C124.316 49.2616 124.316 48.5813 124.451 47.9214C124.451 47.7714 124.991 47.6115 125.281 47.6115C127.161 47.6115 129.041 47.6115 130.921 47.6115L130.931 47.5215Z" fill="#A93FFD"/>
<path d="M130.83 45.0517C128.98 45.0517 127.13 45.0517 125.28 45.0517C124.08 45.0517 124.36 44.1917 124.28 43.5417C124.2 42.8917 124.33 42.2817 125.28 42.2817H136.57C137.2 42.2817 137.47 42.5717 137.42 43.1917C137.395 43.4578 137.395 43.7256 137.42 43.9917C137.48 44.7717 137.19 45.1117 136.35 45.0817C134.49 45.0117 132.65 45.0517 130.83 45.0517Z" fill="#A93FFD"/>
<path d="M16.8599 85.4718C17.1799 88.0718 17.1799 88.1118 14.7399 88.1218C11.4799 88.1218 8.20988 88.1218 4.93988 88.1218C4.13988 88.1218 3.83985 87.8718 3.84985 87.0518C3.84985 85.4118 3.84985 85.3518 5.46985 85.3418C8.86985 85.3418 12.2699 85.3418 15.6699 85.3418C16.0687 85.3618 16.4661 85.4052 16.8599 85.4718Z" fill="#A93FFD"/>
<path d="M10.4894 80.0317H15.6394C16.9094 80.0317 16.9594 80.1017 16.9394 81.4017C16.9245 81.5681 16.9245 81.7354 16.9394 81.9017C17.0694 82.7217 16.5494 82.8317 15.9394 82.8317H9.69942C8.11942 82.8317 6.52942 82.8317 4.94942 82.8317C3.81942 82.8317 3.89941 82.1217 3.87941 81.3817C3.85941 80.6417 3.93937 80.0117 4.96937 80.0417C6.80937 80.0417 8.65941 80.0417 10.5094 80.0417L10.4894 80.0317Z" fill="#A93FFD"/>
</svg>
