<svg width="129" height="128" viewBox="0 0 129 128" fill="none" xmlns="http://www.w3.org/2000/svg">
<path d="M126.21 77.2741C126.841 76.697 127.349 75.9981 127.703 75.2196C128.057 74.4411 128.25 73.599 128.27 72.744C128.358 71.4671 128.052 70.194 127.394 69.0962C126.736 67.9983 125.758 67.1285 124.59 66.604C123.444 65.9809 122.128 65.7418 120.835 65.9218C119.543 66.1018 118.343 66.6914 117.41 67.604C116.444 68.5159 115.532 69.4843 114.68 70.5041C114.23 71.0241 113.76 71.504 113.25 72.114L113.15 72.224L110.65 68.994L107.44 71.994L110.32 74.2641L100.32 84.264V69.1241L100.52 69.2641C101.068 69.7946 101.767 70.1437 102.52 70.2641C103.286 70.1402 103.974 69.7244 104.44 69.104C109.107 64.484 113.737 59.8541 118.33 55.2141C119.83 53.7241 119.82 52.8441 118.33 51.3241L117.1 50.0841L116.94 49.934C115.46 48.424 113.94 46.8741 112.36 45.3941C111.967 45.1186 111.693 44.703 111.597 44.2325C111.5 43.762 111.587 43.2724 111.84 42.864C112.91 40.664 113.84 38.3241 114.68 36.2541C115.506 34.365 115.571 32.2298 114.861 30.294C114.152 28.3581 112.722 26.7712 110.87 25.864C109.764 25.3129 108.546 25.0254 107.31 25.0241C105.857 25.0418 104.435 25.4468 103.19 26.1974C101.946 26.9479 100.924 28.0169 100.23 29.294L99.3401 30.8941V30.994L98.8101 31.994L98.73 32.154L98.61 32.0141C98.07 31.3841 97.5401 30.7841 97.0101 30.1941C95.9101 28.9541 94.86 27.7741 93.93 26.5041C91.48 23.1741 89.0901 19.714 86.7601 16.344L85.93 15.1441C85.5705 14.6387 85.3593 14.043 85.3201 13.424C85.3201 12.024 85.3201 10.6041 85.3201 9.21408C85.3201 8.31408 85.3201 7.38403 85.3201 6.47403C85.3537 5.61707 85.2099 4.76244 84.8979 3.96359C84.586 3.16474 84.1124 2.43893 83.507 1.83157C82.9015 1.22421 82.1771 0.748389 81.3792 0.433927C80.5813 0.119465 79.7271 -0.0268867 78.87 0.00405649H63.93C58.93 0.00405649 53.9301 0.00405649 49.1601 0.00405649C48.3153 -0.0165065 47.4752 0.134727 46.6906 0.448576C45.906 0.762424 45.1934 1.23235 44.5959 1.82986C43.9984 2.42738 43.5284 3.14002 43.2146 3.92459C42.9007 4.70916 42.7495 5.54931 42.7701 6.39407C42.7701 7.56407 42.7701 8.75404 42.7701 9.92404C42.7701 11.094 42.7701 12.294 42.7701 13.474C42.7959 13.9283 42.6881 14.3803 42.4601 14.7741L42.2601 15.054C38.1401 20.944 33.89 27.054 29.6 33.054C28.3201 34.6911 27.6835 36.7399 27.8101 38.8141C27.8101 39.4041 27.8101 40.0041 27.8101 40.6941C27.8101 41.0441 27.8101 41.424 27.8101 41.844V42.1441L24.0101 38.3241L17.11 31.3941C16.06 30.3341 15.45 29.9441 14.86 29.9441C14.27 29.9441 13.6501 30.354 12.5601 31.434L1.32 42.684C-0.44 44.444 -0.44 45.2041 1.32 46.9441L6.69012 52.3241L26.8201 72.4641L26.99 72.6341C27.35 72.9841 27.7501 73.364 27.7701 73.784C27.8401 75.304 27.8301 76.854 27.7701 78.354C27.7701 78.894 27.7701 79.4341 27.7701 79.9741V80.044L27.2201 80.3241L9.88006 62.9441L6.99004 65.724L37.3801 95.9341L32.8801 100.524L3.74004 71.3741L0.58001 74.224L30.1301 103.734L26.3 107.284L26.85 107.784C27.85 108.684 27.85 109.894 27.85 111.054V111.174C27.85 113.664 27.85 116.174 27.85 118.634V121.054C27.85 125.444 30.4 127.964 34.85 127.964H93.37C97.79 127.964 100.37 125.394 100.37 120.964V117.804C100.37 113.504 100.37 109.044 100.37 104.664C100.353 104.236 100.429 103.809 100.591 103.412C100.753 103.015 100.998 102.658 101.31 102.364C105.52 98.184 109.78 93.924 113.91 89.794L118.67 85.0341C118.86 84.8441 119.07 84.664 119.36 84.394L119.93 83.8741L120.03 83.7841L122.31 86.7841L125.46 83.7841L122.35 81.304L123.8 79.894L126.21 77.2741ZM102.07 34.354V34.2741L102.49 33.484C102.89 32.724 103.34 31.874 103.85 31.044C104.198 30.4409 104.698 29.9392 105.299 29.5884C105.901 29.2376 106.584 29.05 107.28 29.044C107.914 29.0446 108.539 29.199 109.1 29.494C109.976 29.9476 110.654 30.709 111.003 31.632C111.352 32.5549 111.347 33.5743 110.99 34.494C110.42 35.974 109.78 37.4241 109.17 38.8141L108.42 40.534L108.35 40.7041L102.07 34.354ZM56.6 3.93405H78.3401C80.4801 3.93405 81.2401 4.70405 81.2501 6.87405V12.674H46.8101V12.554C46.8101 11.904 46.8101 11.2641 46.8101 10.6341V10.5841C46.8101 9.07407 46.8101 7.52405 46.8101 5.99405C46.8801 4.20405 48.52 3.93405 49.49 3.93405H56.6ZM95.7001 34.5741L95.98 35.1941L96.3 35.0641L96.5001 34.9641V35.184C96.4893 35.3205 96.4893 35.4576 96.5001 35.594C96.5146 35.9054 96.46 36.2163 96.3401 36.5041C94.7501 39.5041 93.16 42.3741 91.49 45.4441L90.1601 47.8841L93.68 49.8141L99.7501 38.724L114.28 53.2541L102.54 65.054L84.35 46.8241L84.2701 46.744L84.3801 46.5741C84.4919 46.406 84.6191 46.2486 84.7601 46.104C87.9801 42.874 91.6201 39.214 95.2501 35.614C95.4708 35.4352 95.7213 35.2964 95.99 35.2041L95.74 34.5741H95.7001ZM66.3301 34.0841C59.1801 34.0841 52.1401 34.0841 46.2001 34.0841H34.6901H34.3101H33.9501H33.74L33.86 33.904L36.04 30.784L36.43 30.234C39.43 26.004 42.1701 22.014 45.0701 17.984C45.322 17.6645 45.6363 17.3995 45.9939 17.2052C46.3515 17.011 46.7449 16.8915 47.1501 16.854C51.9801 16.854 57.22 16.854 63.67 16.854H78.67C78.7564 16.8631 78.8391 16.8941 78.9101 16.9441C78.9528 16.9771 78.9999 17.0041 79.05 17.0241L79.17 17.0841L79.1 17.2041L78.92 17.484C78.8 17.684 78.68 17.8741 78.54 18.0741L76.62 20.8241C73.7701 24.9041 70.8201 29.1241 67.8801 33.2541C67.6983 33.5011 67.4679 33.7084 67.2031 33.8632C66.9382 34.018 66.6446 34.1169 66.3401 34.154L66.3301 34.0841ZM70.3301 38.3841C70.3506 37.355 70.6627 36.3528 71.23 35.494C74.17 31.204 77.1 27.0341 80.23 22.6241L80.5701 22.1441L83.18 18.424L83.2801 18.2741L92.9601 32.094L92.8901 32.164L92.5601 32.534C92.33 32.774 92.1101 33.014 91.8801 33.244L85.6 39.534L80.35 44.7741C78.7 46.4241 78.7 47.224 80.35 48.844L82.92 51.424C86.98 55.494 91.1801 59.694 95.3801 63.864C95.6809 64.1396 95.9181 64.4773 96.0752 64.8538C96.2324 65.2303 96.3057 65.6364 96.29 66.044C96.29 69.044 96.29 72.0441 96.29 74.9541V75.114C96.29 79.184 96.29 83.4041 96.29 87.5641C96.2574 88.3095 95.9595 89.0188 95.4501 89.5641C92.9701 92.0941 90.4501 94.6141 88.0101 97.0641L87.9501 97.1241C86.2001 98.8741 84.4001 100.674 82.6401 102.454C82.0597 103.045 81.5709 103.719 81.1901 104.454C80.1901 106.454 79.12 108.554 78.12 110.554C77.25 112.304 76.3401 114.124 75.4401 115.904C74.7701 117.224 74.8101 118.064 75.5801 118.804C75.7482 118.98 75.9497 119.122 76.1729 119.219C76.3961 119.317 76.6364 119.37 76.8801 119.374C77.4167 119.339 77.9376 119.178 78.4001 118.904C81.4001 117.384 84.8001 115.644 88.1901 114.044C90.0916 113.205 91.7952 111.975 93.1901 110.434C93.7701 109.774 94.4001 109.144 95.0101 108.524L95.8301 107.684L95.9001 107.614L96.3401 107.844V117.154C96.3401 118.584 96.3401 120.054 96.3401 121.494C96.3733 121.804 96.3395 122.117 96.2409 122.412C96.1423 122.708 95.9814 122.979 95.7689 123.206C95.5563 123.434 95.2973 123.613 95.0093 123.732C94.7214 123.851 94.4113 123.906 94.1 123.894H82.5001H70.4401V110.784C70.3101 87.1141 70.31 62.634 70.35 38.364L70.3301 38.3841ZM83.5801 111.754L82.0201 112.434L81.6901 112.584L81.86 112.264C82.29 111.444 82.6501 110.594 83.0001 109.764C83.6784 107.852 84.721 106.089 86.0701 104.574C94.9601 95.7241 103.92 86.7441 111.83 78.8141L111.95 78.6941C112.172 78.4505 112.369 78.1859 112.54 77.904C112.64 77.754 112.74 77.584 112.86 77.414L112.95 77.294L116.64 81.024L116.56 81.114L116.33 81.3841C116.17 81.5741 116 81.784 115.82 81.9641C113.6 84.1841 111.387 86.4074 109.18 88.6341L109.06 88.744C102.54 95.304 95.7901 102.084 89.0601 108.624C87.4379 109.975 85.5893 111.028 83.6 111.734L83.5801 111.754ZM26.2201 55.8341L29.2201 58.664L33.7601 53.8741L37.36 57.684L32.5701 62.1941L35.7801 65.1941L40.18 60.4641L43.73 63.9641L34.11 73.5841L5.11004 44.5841L14.67 35.0241L18.2201 38.664L13.37 43.094L16.42 45.994L21.05 41.114L24.74 44.904L19.74 49.434L22.79 52.3841L27.3301 47.544L30.9601 51.3141L26.2201 55.8341ZM46.87 102.404C47.7339 102.395 48.5961 102.325 49.4501 102.194H49.5601L51.5601 110.094L51.1401 110.424L46.42 105.304L43.67 108.304L49.5701 114.084L49.17 114.564L40.3801 113.454V113.344C40.3801 113.054 40.3801 112.774 40.3801 112.464C40.3301 111.828 40.3301 111.19 40.3801 110.554C40.5166 109.716 40.4146 108.855 40.0857 108.072C39.7569 107.289 39.2143 106.614 38.5201 106.124C37.9095 105.618 37.3286 105.077 36.7801 104.504L36.0601 103.794L35.9701 103.704L40.8 98.984L40.8801 99.1241C42.1301 101.344 43.9901 102.384 46.8901 102.384L46.87 102.404ZM35.9601 109.344C36.1896 109.688 36.3146 110.091 36.3201 110.504C36.3201 111.364 36.3201 112.244 36.3201 113.104C36.3201 113.664 36.3201 114.224 36.3201 114.784C36.3201 116.434 36.9101 117.084 38.5301 117.294C43.9234 117.961 49.3101 118.644 54.6901 119.344C55.0995 119.439 55.5267 119.427 55.9298 119.308C56.3329 119.188 56.6982 118.967 56.99 118.664C57.197 118.341 57.3287 117.976 57.3755 117.595C57.4222 117.214 57.3828 116.828 57.2601 116.464C55.9601 111.244 54.6001 105.804 53.2601 100.284C52.8601 98.7041 52.3201 98.2841 50.6501 98.2841H49.9001H49.0801C48.7457 98.2787 48.4114 98.2988 48.0801 98.3441C46.0201 98.6541 44.6101 97.894 43.3801 95.794L43.3201 95.6941L46.3201 93.6241L43.0301 90.3741L40.67 93.484L40.5701 93.3841C39.8301 92.6341 39.1301 91.914 38.4601 91.2141C36.9601 89.674 35.56 88.214 34.04 86.894C33.1721 86.2559 32.4965 85.3911 32.0873 84.3946C31.6781 83.398 31.5511 82.308 31.7201 81.244C31.8069 80.5307 31.8237 79.8106 31.7701 79.0941C31.7701 78.7941 31.7701 78.4841 31.7701 78.1841V77.9341H31.93C32.2 78.0141 32.47 78.124 32.74 78.234C33.1685 78.4369 33.6284 78.5654 34.1 78.614C34.1763 78.6245 34.2538 78.6245 34.3301 78.614C35.1327 78.331 35.8442 77.837 36.3901 77.1841C39.2901 74.3241 42.18 71.424 44.98 68.614L47.55 66.044C49.35 64.244 49.34 63.514 47.55 61.684L44.2601 58.3941C40.4501 54.5841 36.5001 50.634 32.6501 46.724C32.1708 46.2019 31.885 45.5314 31.8401 44.8241C31.7801 43.2841 31.7901 41.764 31.8401 40.164C31.8401 39.554 31.8401 38.9441 31.8401 38.3241V38.1941H66.24V123.934H34.9601C32.5401 123.934 31.8401 123.234 31.8401 120.794C31.8401 119.954 31.8401 119.114 31.8401 118.264V118.014C31.8401 114.944 31.8401 111.764 31.8401 108.634C31.8855 108.125 32.0281 107.629 32.2601 107.174C32.3501 106.964 32.4401 106.754 32.5101 106.544V106.484L33.2501 106.314L33.3 106.364L34.04 107.174C34.71 107.854 35.37 108.574 35.98 109.324L35.9601 109.344ZM123.65 74.054C122.77 75.004 121.82 75.924 120.89 76.804L119.67 77.974L119.58 78.0641L116.1 74.474L116.19 74.3841L117.3 73.294V73.244C118.16 72.3941 119.05 71.5141 119.96 70.6841C120.424 70.2323 121.043 69.9748 121.69 69.9641C122.319 69.9711 122.922 70.2138 123.38 70.6441C123.628 70.8431 123.833 71.0904 123.983 71.3711C124.133 71.6518 124.224 71.96 124.251 72.2769C124.278 72.5939 124.241 72.9131 124.141 73.2151C124.041 73.5172 123.881 73.7957 123.67 74.034L123.65 74.054Z" fill="#A93FFD"/>
<path d="M81.13 72.3439C81.9065 72.3397 82.6757 72.194 83.4 71.9139C84.6447 71.4332 85.713 70.5838 86.4618 69.4794C87.2106 68.375 87.6042 67.0682 87.59 65.7339V65.6439V65.5539C87.53 65.2939 87.49 65.0139 87.45 64.7339C87.3969 64.092 87.2275 63.4652 86.95 62.8839C85.61 60.5739 84.16 58.3239 82.63 56.1939C82.4763 55.9611 82.2667 55.7704 82.0204 55.6394C81.7741 55.5084 81.499 55.4412 81.22 55.4439C80.8781 55.4603 80.5454 55.5599 80.2509 55.7342C79.9563 55.9085 79.7089 56.1521 79.53 56.4439C78.33 58.1539 76.83 60.2839 75.61 62.4439C74.9649 63.6919 74.7052 65.1033 74.8636 66.4992C75.0221 67.895 75.5916 69.2123 76.5 70.2839C77.0823 70.935 77.7961 71.4552 78.5941 71.8103C79.3922 72.1654 80.2565 72.3472 81.13 72.3439ZM79.21 64.1439C79.56 63.5139 79.97 62.9039 80.43 62.2339C80.63 61.9339 80.85 61.6239 81.07 61.2839L81.18 61.1139L81.28 61.2839L81.94 62.2839C82.3846 62.9266 82.792 63.5944 83.16 64.2839C83.4503 64.867 83.5429 65.5289 83.4239 66.1693C83.3048 66.8098 82.9805 67.3941 82.5 67.8339C82.097 68.1649 81.5872 68.3373 81.0661 68.3189C80.545 68.3005 80.0485 68.0925 79.67 67.7339C79.2099 67.2707 78.9096 66.6729 78.8125 66.0273C78.7154 65.3817 78.8266 64.722 79.13 64.1439H79.21Z" fill="#A93FFD"/>
</svg>
