<svg width="127" height="127" viewBox="0 0 127 127" fill="none" xmlns="http://www.w3.org/2000/svg">
<path d="M93.15 24.76H9.73007V81.07C9.73007 83.26 9.72999 83.27 12.02 83.27H39.02C39.59 83.27 40.3001 83.08 40.7101 83.35C41.3701 83.8 42.27 84.55 42.26 85.16C42.25 85.77 41.3601 86.52 40.7101 87C40.3701 87.25 39.71 87.07 39.19 87.07H3.86997V96.07H50.25C52.86 96.07 53.3301 96.55 53.3401 99.19V123.62C53.3401 124.08 53.5 124.68 53.27 124.97C52.76 125.61 52.05 126.52 51.43 126.52C50.81 126.52 50.0901 125.6 49.6101 124.95C49.3701 124.6 49.54 123.95 49.54 123.43V99.9C47.348 100.029 45.1499 100.012 42.9601 99.85C39.6401 99.38 37.7 100.76 35.83 103.44C30.77 110.67 25.39 117.67 20.13 124.77C19.8381 125.192 19.5209 125.596 19.18 125.98C18.39 126.8 17.3201 127.03 16.6101 126.19C16.2006 125.454 16.0459 124.603 16.17 123.77C16.17 123.34 16.7 122.92 17.01 122.51L32.3601 101.78C32.7301 101.28 33.0801 100.78 33.7101 99.9H5.00998C1.18998 99.9 0.00998047 98.68 0.00998047 94.85C0.00998047 92.5633 0.00998047 90.27 0.00998047 87.97C0.00998047 84.58 1.22001 83.37 4.66001 83.23C4.99001 83.23 5.33001 83.18 5.79001 83.14V24.73C5.12001 24.73 4.45001 24.66 3.79001 24.59C3.27034 24.5845 2.75731 24.4727 2.28244 24.2615C1.80757 24.0504 1.38097 23.7443 1.02878 23.3622C0.676589 22.98 0.406218 22.5298 0.234468 22.0393C0.062718 21.5488 -0.0068583 21.0284 0.03 20.51C-0.01 17.7033 -0.01 14.8934 0.03 12.08C0.03 9.39002 1.51004 7.92998 4.20004 7.91998C10.85 7.91998 17.51 7.91998 24.2 7.91998H43.65C43.65 6.29998 43.65 4.92002 43.65 3.46002C43.71 0.980022 44.6501 0.02 47.1001 0C50.0867 0 53.0867 0 56.1001 0C58.3601 0 59.31 1 59.4 3.25C59.46 4.73 58.99 6.84001 59.77 7.51001C60.55 8.18001 62.67 7.90997 64.2 7.90997C75.5 7.90997 86.8001 7.90997 98.1001 7.90997C101.77 7.90997 103.03 9.18997 103.03 12.91C103.03 15.2 103.03 17.5 103.03 19.79C103.03 23.24 101.77 24.5 98.26 24.65C97.98 24.65 97.7 24.65 97.13 24.74V52.18C97.13 52.75 97.28 53.48 96.99 53.86C96.53 54.47 95.75 55.25 95.13 55.23C94.51 55.21 93.79 54.38 93.4 53.73C93.11 53.26 93.27 52.5 93.26 51.87V24.75L93.15 24.76ZM99.15 20.66C99.15 18.18 99.05 15.9 99.15 13.66C99.24 12.13 98.7401 11.74 97.2301 11.74C66.7234 11.7867 36.2167 11.7867 5.71005 11.74C5.11005 11.74 4.49998 11.8 3.87998 11.83V20.66H99.15ZM55.37 7.84998V3.91998H47.63V7.84998H55.37Z" fill="#A93FFD"/>
<path d="M80.0701 99.7098C82.2501 105.21 84.2201 110.14 86.1801 115.07C86.7101 116.4 87.31 117.71 87.74 119.07C88.0422 119.925 88.1363 120.839 88.0143 121.737C87.8923 122.635 87.5579 123.492 87.0387 124.235C86.5195 124.978 85.8306 125.586 85.0291 126.01C84.2275 126.433 83.3365 126.66 82.4301 126.67C81.2901 126.72 80.14 126.67 78.99 126.67C74.99 126.67 73.54 125.67 71.99 121.9C69.23 115.11 66.4401 108.33 63.7201 101.53C63.5627 101.025 63.2861 100.565 62.9137 100.189C62.5413 99.8128 62.0838 99.5319 61.5801 99.3698C60.4129 98.9543 59.363 98.264 58.5188 97.3572C57.6746 96.4504 57.0611 95.3537 56.7301 94.1598C56.6036 93.8543 56.4132 93.5794 56.1718 93.3535C55.9303 93.1275 55.6433 92.9558 55.3301 92.8498C50.0301 91.4898 46.54 87.2999 46.54 82.1598C46.54 77.0198 50.0301 72.8399 55.3401 71.5099C55.6579 71.395 55.9473 71.2133 56.1888 70.977C56.4304 70.7406 56.6183 70.4551 56.74 70.1399C57.221 68.442 58.256 66.9537 59.6803 65.9118C61.1045 64.8699 62.8363 64.3342 64.6001 64.3899C69.7601 64.3899 74.9201 64.3899 80.0801 64.3899C81.2169 64.379 82.3432 64.1726 83.41 63.7798C92.72 60.2598 102.07 56.7799 111.3 53.0699C115.38 51.4199 118.1 53.7698 117.83 57.4998C117.58 61.0298 117.83 64.5998 117.76 68.1598C117.696 68.5453 117.786 68.9405 118.01 69.2603C118.235 69.5802 118.576 69.7991 118.96 69.8698C124.02 71.5898 126.66 75.2799 126.69 80.5999C126.809 82.4311 126.752 84.2695 126.52 86.0898C126.225 88.0326 125.382 89.8507 124.089 91.3301C122.795 92.8094 121.106 93.8884 119.22 94.4398C118.988 94.4749 118.764 94.5562 118.564 94.679C118.363 94.8017 118.189 94.9634 118.052 95.1545C117.915 95.3456 117.818 95.5622 117.766 95.7916C117.714 96.0209 117.709 96.2584 117.75 96.4898C117.82 99.9198 117.75 103.37 117.75 106.81C117.75 111.32 115.54 112.86 111.36 111.26C101.953 107.673 92.54 104.083 83.12 100.49C82.1169 100.179 81.099 99.9192 80.0701 99.7098ZM113.89 56.3899C113.25 56.5899 112.76 56.6998 112.29 56.8798C103.41 60.2698 94.55 63.6998 85.66 67.0298C85.1427 67.1497 84.6895 67.4604 84.3911 67.8997C84.0927 68.339 83.9709 68.8747 84.05 69.3999C84.0967 77.9399 84.0967 86.4798 84.05 95.0198C83.9835 95.5457 84.1173 96.0774 84.4249 96.5091C84.7325 96.9408 85.1913 97.241 85.7101 97.3498C93.7101 100.35 101.65 103.35 109.62 106.44L113.9 108.08L113.89 56.3899ZM80.1901 68.2699C74.6601 68.2699 69.34 68.1799 64.02 68.2699C63.5109 68.2784 63.0088 68.3899 62.5439 68.5977C62.0791 68.8056 61.6612 69.1055 61.3154 69.4793C60.9697 69.8531 60.7032 70.2931 60.5321 70.7727C60.361 71.2523 60.2889 71.7616 60.3201 72.2699C60.2501 78.8699 60.2401 85.4698 60.3201 92.0598C60.3009 92.5997 60.3948 93.1377 60.5961 93.639C60.7973 94.1404 61.1013 94.594 61.4884 94.9708C61.8755 95.3476 62.3374 95.6392 62.844 95.8267C63.3506 96.0143 63.8909 96.0937 64.4301 96.0598C69.4301 96.1098 74.4301 96.0598 79.4301 96.0598C79.6962 96.025 79.9577 95.9613 80.2101 95.8698L80.1901 68.2699ZM67.25 99.9498C67.59 100.83 67.78 101.36 67.99 101.88C70.23 107.38 72.4501 112.88 74.7201 118.39C76.8501 123.54 75.8101 122.88 81.8301 122.88C83.8301 122.88 84.6501 121.63 83.9301 119.79C81.4634 113.51 78.9534 107.25 76.4 101.01C76.22 100.57 75.67 100.01 75.27 100.01C72.71 99.8999 70.15 99.9498 67.25 99.9498ZM117.84 90.7899C118.835 90.5664 119.759 90.0968 120.526 89.4242C121.293 88.7516 121.879 87.8975 122.23 86.9398C123.354 83.8489 123.354 80.4608 122.23 77.3698C121.87 76.4249 121.283 75.5831 120.521 74.9186C119.759 74.2541 118.845 73.7875 117.86 73.5598L117.84 90.7899ZM56.3501 88.9398V75.4298C54.7028 75.6203 53.1846 76.4148 52.0892 77.6598C50.9939 78.9048 50.3992 80.5117 50.42 82.1698C50.3984 83.8313 50.9921 85.442 52.0869 86.6919C53.1817 87.9417 54.7003 88.7425 56.3501 88.9398Z" fill="#A93FFD"/>
<path d="M85.0504 41.5598C85.0624 42.9827 84.791 44.3937 84.252 45.7107C83.7129 47.0276 82.9172 48.2241 81.911 49.2303C80.9048 50.2365 79.7083 51.0323 78.3914 51.5714C77.0744 52.1104 75.6633 52.3817 74.2404 52.3698C71.3689 52.3698 68.6147 51.2304 66.5824 49.2018C64.5501 47.1733 63.4057 44.4212 63.4004 41.5497C63.4214 38.6788 64.5734 35.9318 66.6063 33.9044C68.6393 31.8771 71.3893 30.7328 74.2604 30.7197C75.6812 30.721 77.0878 31.0027 78.3995 31.5485C79.7113 32.0944 80.9026 32.8937 81.9049 33.9007C82.9072 34.9077 83.701 36.1025 84.2407 37.4168C84.7805 38.7311 85.0557 40.139 85.0504 41.5598ZM81.2604 41.5598C81.237 39.7105 80.4921 37.9435 79.1843 36.6358C77.8766 35.3281 76.1096 34.5831 74.2604 34.5598C72.4079 34.5728 70.6351 35.3145 69.3252 36.6245C68.0153 37.9344 67.2735 39.7073 67.2604 41.5598C67.276 43.4114 68.0186 45.1828 69.328 46.4922C70.6374 47.8016 72.4087 48.5441 74.2604 48.5598C76.114 48.5337 77.8839 47.7838 79.1919 46.4702C80.4999 45.1565 81.2423 43.3834 81.2604 41.5297V41.5598Z" fill="#A93FFD"/>
<path d="M29.1297 67.4402C27.0497 69.5702 25.1298 71.4402 23.2898 73.4402C22.2898 74.4402 21.2898 75.3402 19.9098 74.1402C18.9098 73.2802 19.1497 72.1402 20.5197 70.7702L26.5197 64.8302C24.2497 62.5902 22.1197 60.5202 20.0097 58.4202C19.7998 58.2646 19.6263 58.0653 19.5012 57.8359C19.3761 57.6065 19.3022 57.3526 19.2851 57.0919C19.268 56.8311 19.3079 56.5698 19.4019 56.326C19.496 56.0823 19.642 55.8619 19.8298 55.6802C20.0072 55.468 20.2289 55.2973 20.4795 55.1802C20.73 55.0631 21.0032 55.0024 21.2797 55.0024C21.5563 55.0024 21.8295 55.0631 22.08 55.1802C22.3306 55.2973 22.5524 55.468 22.7298 55.6802C23.1098 56.0202 23.4598 56.4002 23.8198 56.7702L29.0898 62.1702C31.2598 60.0002 33.2098 57.9002 35.3298 55.9902C35.6828 55.7013 36.0909 55.4876 36.5294 55.3621C36.9679 55.2365 37.4274 55.2019 37.8797 55.2602C39.1797 55.5402 39.3298 57.3302 38.1798 58.4902C36.1298 60.5602 34.0097 62.5702 31.7397 64.7802C33.9497 66.9502 36.0298 68.8902 37.9798 70.9702C38.5346 71.5835 38.8381 72.3832 38.8298 73.2102C38.6698 74.7702 36.8297 75.1402 35.5197 73.8802C33.4297 71.8702 31.4097 69.7602 29.1297 67.4402Z" fill="#A93FFD"/>
<path d="M36.5094 37.52C30.8294 37.52 25.1494 37.52 19.5094 37.52C18.6311 37.494 17.7952 37.1368 17.1694 36.52C17.0084 36.2805 16.9098 36.0046 16.8827 35.7173C16.8555 35.43 16.9006 35.1406 17.0139 34.8752C17.1272 34.6098 17.3051 34.377 17.5314 34.198C17.7576 34.0189 18.0251 33.8992 18.3094 33.8499C18.875 33.763 19.4482 33.7362 20.0194 33.77H53.9194C55.3194 33.7 56.3995 34.23 56.3395 35.77C56.2795 37.31 55.2594 37.6099 53.9294 37.6099C48.0894 37.4999 42.2994 37.52 36.5094 37.52Z" fill="#A93FFD"/>
<path d="M32.0499 48.46C27.9899 48.46 23.92 48.46 19.85 48.46C19.2301 48.531 18.6024 48.4379 18.0299 48.19C17.7442 47.9931 17.5019 47.7398 17.3179 47.4457C17.1338 47.1516 17.0121 46.8229 16.96 46.4799C17.0216 46.1395 17.154 45.8159 17.3486 45.5299C17.5433 45.244 17.7959 45.0021 18.09 44.82C18.6658 44.5714 19.2976 44.4816 19.9199 44.5599H44.3099C44.7099 44.5599 45.2299 44.4199 45.4899 44.6099C46.1999 45.1499 47.18 45.7499 47.33 46.4799C47.58 47.6299 46.63 48.3499 45.45 48.4299C44.27 48.5099 43.1599 48.4299 42.0199 48.4299L32.0499 48.46Z" fill="#A93FFD"/>
<path d="M41.1893 66.1901C39.7293 66.2901 38.7793 65.8101 38.6593 64.4901C38.5393 63.1701 39.4293 62.5501 40.6593 62.3801C48.6807 61.4555 56.2226 58.0825 62.2593 52.72C63.1893 51.87 64.2593 51.6701 65.1493 52.6501C66.0393 53.6301 65.7793 54.6501 64.8993 55.5201C59.8893 60.7101 48.2493 65.9201 41.1893 66.1901Z" fill="#A93FFD"/>
<path d="M74.1994 38.6299C74.9499 38.6267 75.6725 38.9145 76.2151 39.4329C76.7578 39.9514 77.0784 40.66 77.1094 41.4099C77.1356 41.7954 77.0818 42.1822 76.9517 42.546C76.8216 42.9099 76.6178 43.243 76.3532 43.5246C76.0885 43.8061 75.7687 44.03 75.4136 44.1823C75.0585 44.3347 74.6757 44.4121 74.2893 44.4099C73.53 44.4372 72.7903 44.1655 72.2293 43.6531C71.6683 43.1407 71.3308 42.4286 71.2893 41.6699C71.2785 40.8827 71.5775 40.1228 72.1219 39.5541C72.6663 38.9854 73.4125 38.6535 74.1994 38.6299ZM75.6493 41.6299C75.0293 41.1399 74.6494 40.6299 74.3194 40.6299C73.9894 40.6299 73.6294 41.1599 73.3194 41.4599C73.6194 41.8099 73.8893 42.3799 74.2393 42.4599C74.5893 42.5399 74.9593 42.0499 75.6493 41.6399V41.6299Z" fill="#A93FFD"/>
</svg>
