<svg width="116" height="127" viewBox="0 0 116 127" fill="none" xmlns="http://www.w3.org/2000/svg">
<path d="M33.8822 126.699C31.9631 126.271 30.0806 125.693 28.2522 124.969C21.2522 121.619 17.6222 115.969 17.2522 108.239C17.1922 106.759 17.2522 105.239 17.2522 103.789C17.2201 103.532 17.2419 103.271 17.3165 103.023C17.391 102.775 17.5166 102.545 17.6851 102.349C17.8536 102.152 18.0614 101.992 18.2951 101.881C18.5288 101.769 18.7832 101.707 19.0422 101.699C20.1722 101.699 20.9122 102.469 20.9522 103.799C20.9201 106.022 21.0035 108.245 21.2022 110.459C21.7263 113.898 23.4509 117.039 26.0703 119.327C28.6897 121.615 32.0347 122.902 35.5122 122.959C53.6589 123.019 71.8089 123.019 89.9622 122.959C93.6502 122.872 97.1734 121.414 99.845 118.87C102.517 116.326 104.145 112.879 104.412 109.199C104.412 108.549 104.472 107.889 104.472 107.199C104.472 89.5859 104.472 71.976 104.472 54.3693V53.0493L104.072 52.7893C103.072 53.9293 101.942 55.0293 100.972 56.2193C100.764 56.6617 100.691 57.1556 100.762 57.6393C100.762 74.1393 100.762 90.636 100.762 107.129C100.762 111.759 99.1122 115.479 95.0022 117.719C93.3877 118.621 91.5804 119.121 89.7322 119.179C71.7322 119.279 53.7088 119.279 35.6622 119.179C34.1921 119.165 32.7394 118.859 31.3884 118.279C30.0373 117.7 28.8147 116.858 27.7916 115.802C26.7684 114.746 25.965 113.498 25.4278 112.129C24.8906 110.761 24.6303 109.299 24.6622 107.829C24.6622 91.3426 24.6622 74.8493 24.6622 58.3493C24.6622 55.8493 24.6622 55.8193 22.0722 55.8393H20.9422V95.3693C20.9422 97.0293 20.2822 97.9193 19.0922 97.9293C17.9022 97.9393 17.2322 97.0293 17.2322 95.3793V55.8693C15.3722 55.8693 13.5722 55.8693 11.7822 55.8693C10.2732 55.9342 8.76662 55.696 7.35132 55.1687C5.93603 54.6414 4.64079 53.8357 3.54218 52.7993C2.39299 51.727 1.48485 50.4226 0.877996 48.9727C0.27114 47.5228 -0.0205308 45.9605 0.0222222 44.3893C0.0222222 37.7893 -0.0277778 31.1893 0.0222222 24.5893C0.0922222 17.8093 4.86222 13.1493 11.6422 13.1093C13.4622 13.1093 15.2722 13.1093 17.0922 13.1093C17.3695 13.1548 17.6538 13.0934 17.8877 12.9375C18.1216 12.7816 18.2875 12.5428 18.3522 12.2693C19.6739 8.58308 22.1301 5.41065 25.3678 3.20785C28.6055 1.00504 32.4581 -0.114761 36.3722 0.00930037C54.0322 0.00930037 71.6989 0.00930037 89.3722 0.00930037C91.8118 -0.0424038 94.2374 0.390352 96.5086 1.28249C98.7798 2.17464 100.852 3.50843 102.604 5.20669C104.356 6.90495 105.754 8.9339 106.717 11.1761C107.679 13.4183 108.188 15.8293 108.212 18.2693C108.272 20.9393 108.702 22.8393 111.012 24.6993C114.872 27.8293 116.122 32.3393 115.602 37.2893C115.612 37.5546 115.567 37.819 115.47 38.0661C115.373 38.3132 115.226 38.5376 115.038 38.7253C114.851 38.913 114.626 39.06 114.379 39.157C114.132 39.254 113.867 39.2991 113.602 39.2893C113.333 39.2768 113.069 39.2054 112.83 39.0803C112.591 38.9551 112.382 38.7792 112.218 38.5648C112.054 38.3505 111.939 38.1028 111.881 37.8393C111.823 37.5757 111.824 37.3027 111.882 37.0393C112.269 34.229 111.591 31.3755 109.982 29.0393C109.063 27.7093 107.865 26.5955 106.471 25.7751C105.078 24.9547 103.523 24.4474 101.914 24.2885C100.305 24.1296 98.6805 24.3229 97.1537 24.8549C95.6269 25.3869 94.2341 26.2449 93.0722 27.3693C91.1622 29.1893 90.7122 29.1893 88.7922 27.3693C86.7409 25.3807 84.004 24.2563 81.1472 24.2284C78.2903 24.2004 75.532 25.2712 73.4422 27.2193C69.2222 31.1293 68.4422 38.0193 72.3522 42.2193C78.3522 48.5993 84.8422 54.5593 91.1822 60.7593C91.2622 60.6893 91.5622 60.4193 91.8522 60.1393L108.732 43.2493C108.882 43.1093 109.022 42.9493 109.172 42.8193C109.517 42.4863 109.978 42.3002 110.457 42.3002C110.937 42.3002 111.397 42.4863 111.742 42.8193C111.92 42.9782 112.064 43.1717 112.165 43.3879C112.266 43.6041 112.322 43.8386 112.329 44.0771C112.337 44.3156 112.296 44.5532 112.209 44.7753C112.121 44.9974 111.99 45.1995 111.822 45.3693C111.008 46.3031 110.137 47.1849 109.212 48.0093C108.873 48.2993 108.605 48.6645 108.432 49.076C108.258 49.4874 108.183 49.9337 108.212 50.3793C108.212 69.3793 108.212 88.3793 108.212 107.379C108.315 110.339 107.709 113.28 106.447 115.958C105.184 118.637 103.3 120.975 100.952 122.779C98.5169 124.711 95.623 125.978 92.5522 126.459C92.2803 126.521 92.0131 126.601 91.7522 126.699H33.8822ZM28.7422 109.889C28.8122 110.209 28.8422 110.449 28.9122 110.669C29.4727 112.169 30.4958 113.45 31.8334 114.33C33.1709 115.209 34.7536 115.639 36.3522 115.559H88.8222C94.0522 115.559 97.1022 112.559 97.1022 107.259C97.1022 92.0793 97.1022 76.9026 97.1022 61.7293C97.1022 61.2993 97.1022 60.8793 97.0222 60.1293C95.4222 61.7593 94.0822 63.1293 92.7122 64.4993C91.3422 65.8693 90.5122 65.8593 89.1622 64.4993L81.1622 56.4993C77.4322 52.7693 73.5522 49.1593 70.0322 45.2393C65.8322 40.5693 65.0322 35.0593 67.5922 29.3493C70.1522 23.6393 74.8222 20.7393 81.0922 20.5993C84.6117 20.526 88.0329 21.7627 90.6922 24.0693C92.7622 23.0693 94.6922 22.1393 96.5722 21.1693C96.7165 21.0852 96.8412 20.9712 96.9378 20.8349C97.0343 20.6987 97.1007 20.5433 97.1322 20.3793C97.7222 14.9393 94.3522 11.1793 88.9022 11.1793H36.8022C36.3492 11.1543 35.8952 11.1543 35.4422 11.1793C33.7764 11.2813 32.2064 11.9933 31.0322 13.1793H32.6222C36.7822 13.1793 40.9522 13.1793 45.1222 13.1793C46.613 13.1615 48.0921 13.4437 49.4716 14.0091C50.8511 14.5745 52.1028 15.4115 53.1523 16.4704C54.2019 17.5292 55.0277 18.7883 55.5809 20.1728C56.134 21.5572 56.4031 23.0387 56.3722 24.5293C56.3722 31.3793 56.4222 38.2293 56.3722 45.0693C56.3171 47.648 55.3575 50.1253 53.6613 52.0684C51.965 54.0114 49.6398 55.2966 47.0922 55.6993C45.8922 55.8893 44.6622 55.9193 43.3022 56.0293C43.3022 57.7993 43.3622 59.5193 43.3022 61.2393C43.2794 62.2579 42.9761 63.2506 42.4256 64.108C41.8752 64.9654 41.0989 65.6544 40.1822 66.0993C39.0379 66.746 37.7084 66.9863 36.4102 66.7811C35.1119 66.5759 33.9213 65.9373 33.0322 64.9693C31.5522 63.5193 30.1222 61.9693 28.4822 60.3493V70.1993H47.3722C51.0922 70.1993 52.6422 68.9293 53.4722 65.2693C54.4722 60.8893 55.4722 56.5093 56.4722 52.1493C56.6574 51.1513 57.0735 50.2104 57.6872 49.4019C58.3008 48.5933 59.0951 47.9395 60.0064 47.4925C60.9178 47.0456 61.921 46.818 62.936 46.8278C63.951 46.8377 64.9497 47.0847 65.8522 47.5493C67.5249 48.4634 68.8912 49.85 69.7804 51.536C70.6696 53.222 71.0424 55.1326 70.8522 57.0293C70.5422 59.2293 70.0422 61.3993 69.6222 63.5793C69.2022 65.7593 68.7922 67.8993 68.3422 70.1993H69.8922C73.2322 70.1993 76.5722 70.1493 79.8922 70.2593C81.3347 70.2726 82.7249 70.8008 83.8123 71.7488C84.8996 72.6968 85.6124 74.0021 85.8222 75.4293C85.8798 77.1397 85.7658 78.8516 85.4822 80.5393C86.4358 81.1212 87.2207 81.9423 87.7592 82.921C88.2977 83.8998 88.5711 85.0023 88.5522 86.1193C88.5429 87.3204 88.2138 88.4975 87.5986 89.5292C86.9835 90.5609 86.1045 91.41 85.0522 91.9893C85.6306 92.9153 85.9683 93.9712 86.0347 95.061C86.101 96.1508 85.8939 97.2399 85.4322 98.2293C84.967 99.1876 84.2893 100.027 83.4505 100.684C82.6118 101.341 81.6341 101.797 80.5922 102.019C81.9322 106.789 78.3822 110.019 74.3222 109.949C59.6422 109.799 44.9522 109.889 30.2722 109.889H28.7422ZM28.3122 16.8893H11.8522C6.96218 16.8893 3.85219 19.9493 3.80219 24.7993C3.80219 31.3059 3.80219 37.8193 3.80219 44.3393C3.80219 49.1393 6.96219 52.2193 11.7422 52.2293C15.8622 52.2293 19.9922 52.2293 24.1122 52.2293C24.5608 52.2122 25.0077 52.2929 25.4221 52.4655C25.8365 52.6382 26.2084 52.8988 26.5122 53.2293C29.5122 56.2293 32.5122 59.1793 35.4322 62.1593C35.7367 62.5792 36.1711 62.8871 36.6682 63.0353C37.1653 63.1835 37.6974 63.1638 38.1822 62.9793C38.6831 62.7761 39.1007 62.4099 39.3675 61.9398C39.6343 61.4698 39.7346 60.9235 39.6522 60.3893C39.6522 58.4493 39.6522 56.5093 39.6522 54.5793C39.6522 52.8793 40.3022 52.2593 41.9722 52.2393H44.6922C49.6222 52.2393 52.6922 49.1393 52.6922 44.2393C52.6922 37.8459 52.6922 31.456 52.6922 25.0693C52.6922 19.9793 49.6322 16.9493 44.5022 16.9393L28.3122 16.8893ZM50.2022 106.049C50.314 106.107 50.4312 106.154 50.5522 106.189C58.7622 106.189 66.9622 106.189 75.1622 106.189C75.6774 106.19 76.173 105.991 76.5455 105.636C76.9181 105.28 77.139 104.794 77.1622 104.279C77.2007 103.736 77.0225 103.199 76.6665 102.787C76.3104 102.375 75.8055 102.12 75.2622 102.079C73.8222 101.779 73.1622 101.079 73.2622 100.079C73.3622 99.0793 74.1922 98.4093 75.6022 98.3893C77.0122 98.3693 78.4122 98.3893 79.8022 98.3093C80.4675 98.243 81.0868 97.94 81.5475 97.4555C82.0082 96.9709 82.2796 96.3371 82.3122 95.6693C82.3309 95.0058 82.1158 94.3568 81.7045 93.8359C81.2932 93.3149 80.7119 92.9551 80.0622 92.8193C79.8222 92.7593 79.5722 92.7293 79.3322 92.6893C79.0923 92.6826 78.8563 92.626 78.6394 92.5232C78.4225 92.4203 78.2293 92.2735 78.0723 92.092C77.9152 91.9104 77.7977 91.6982 77.7271 91.4688C77.6565 91.2393 77.6343 90.9977 77.6622 90.7593C77.6629 90.5203 77.7128 90.284 77.8089 90.0651C77.905 89.8462 78.0451 89.6495 78.2206 89.4872C78.396 89.3249 78.603 89.2004 78.8287 89.1216C79.0544 89.0429 79.2938 89.0114 79.5322 89.0293C80.2722 88.9793 81.0222 89.0293 81.7622 89.0293C83.6322 88.9593 84.8422 87.8293 84.8222 86.1793C84.8022 84.5293 83.5922 83.4493 81.7122 83.3793C80.8477 83.3913 79.9832 83.3579 79.1222 83.2793C78.704 83.2387 78.3177 83.0381 78.0438 82.7195C77.7699 82.4009 77.6296 81.9888 77.6522 81.5693C77.6171 81.1506 77.7373 80.7336 77.99 80.3979C78.2427 80.0623 78.6102 79.8314 79.0222 79.7493C79.3722 79.6593 79.7522 79.6393 80.1122 79.5593C80.7407 79.4158 81.3014 79.062 81.7014 78.5564C82.1015 78.0509 82.317 77.4239 82.3122 76.7793C82.2876 76.1359 82.0459 75.5198 81.6265 75.0313C81.207 74.5429 80.6345 74.2108 80.0022 74.0893C79.4723 74.0144 78.9371 73.9844 78.4022 73.9993H67.0222C64.4522 73.9993 63.8922 73.2693 64.4022 70.7193C65.3122 66.1993 66.2422 61.7193 67.0522 57.1493C67.285 56.0012 67.1584 54.8092 66.6896 53.7356C66.2208 52.662 65.4325 51.759 64.4322 51.1493C64.0667 50.8745 63.6385 50.6952 63.1862 50.6275C62.734 50.5599 62.272 50.6061 61.8421 50.762C61.4122 50.9179 61.028 51.1785 60.7242 51.5202C60.4204 51.862 60.2066 52.2741 60.1022 52.7193C59.9822 53.1093 59.9122 53.5193 59.8222 53.9193C58.8222 58.2893 57.8222 62.6693 56.8222 67.0393C56.5387 68.5275 55.8585 69.9115 54.8535 71.0451C53.8484 72.1786 52.5558 73.0197 51.1122 73.4793C50.8008 73.542 50.527 73.7257 50.3508 73.99C50.1746 74.2543 50.1103 74.5777 50.1722 74.8893C50.1722 79.9993 50.1722 85.1093 50.1722 90.2293L50.2022 106.049ZM28.4622 106.109H46.3722V74.0493H28.4222L28.4622 106.109ZM22.1022 13.1793C23.1022 13.1793 23.9322 13.1793 24.7422 13.1793C25.155 13.2436 25.5777 13.1827 25.9556 13.0045C26.3335 12.8262 26.6493 12.5388 26.8622 12.1793C27.8059 10.7352 29.0968 9.5509 30.6168 8.73501C32.1367 7.91912 33.8371 7.49771 35.5622 7.5093C53.6622 7.4493 71.7655 7.4493 89.8722 7.5093C92.6677 7.54995 95.3443 8.64686 97.3644 10.5797C99.3844 12.5126 100.598 15.1383 100.762 17.9293C100.812 18.7793 100.842 19.6393 100.882 20.4893L104.322 20.8993C104.402 20.8193 104.452 20.7893 104.452 20.7593C104.734 18.665 104.571 16.5346 103.972 14.5079C103.374 12.4812 102.354 10.6038 100.979 8.99874C99.6045 7.3937 97.9062 6.09722 95.9956 5.1943C94.0849 4.29137 92.005 3.80236 89.8922 3.7593C71.8322 3.6993 53.7722 3.6693 35.7122 3.7593C29.8322 3.7593 25.4722 6.75932 22.6422 11.8993C22.4402 12.3061 22.2599 12.7234 22.1022 13.1493V13.1793Z" fill="#A93FFD"/>
<path d="M22.373 22.0195H33.013C34.573 22.0195 35.3929 22.6895 35.3629 23.9095C35.3329 25.1295 34.5129 25.7195 33.0429 25.7295H11.523C10.093 25.7295 9.22298 25.0095 9.21298 23.8795C9.20298 22.7495 10.0529 22.0195 11.4929 22.0195H22.373Z" fill="#A93FFD"/>
<path d="M22.3732 30.1592H33.0032C34.5632 30.1592 35.3832 30.8392 35.3532 32.0492C35.3232 33.2592 34.5032 33.8592 33.0332 33.8592H11.5132C10.0832 33.8592 9.21321 33.1392 9.20321 32.0092C9.19321 30.8792 10.0432 30.1592 11.4832 30.1592H22.3732Z" fill="#A93FFD"/>
<path d="M22.2425 38.369H32.9925C34.5725 38.369 35.3925 39.029 35.3725 40.229C35.3525 41.429 34.5325 42.069 32.9525 42.069H11.5625C10.1625 42.069 9.3425 41.449 9.2425 40.369C9.1425 39.289 9.97249 38.369 11.3625 38.369C14.9825 38.299 18.6125 38.369 22.2425 38.369Z" fill="#A93FFD"/>
</svg>
