<svg width="147" height="127" viewBox="0 0 147 127" fill="none" xmlns="http://www.w3.org/2000/svg">
<path d="M72.9799 126.75C69.9799 121.51 67.0299 116.49 64.1199 111.46C55.2999 96.1801 46.47 80.9101 37.63 65.6501C37.1634 65.0287 36.9037 64.2765 36.8875 63.4996C36.8714 62.7227 37.0996 61.9603 37.54 61.3201C49.0067 41.6201 60.4233 21.8834 71.79 2.11005C72.15 1.50005 72.5399 0.910039 73.0899 0.0400391L78.3199 9.09003C81.7099 14.95 85.06 20.84 88.51 26.66C88.8672 27.1662 89.059 27.7705 89.059 28.3901C89.059 29.0096 88.8672 29.6139 88.51 30.1201C82.35 40.6501 76.29 51.25 70.14 61.79C69.7982 62.2648 69.6143 62.835 69.6143 63.42C69.6143 64.0051 69.7982 64.5753 70.14 65.05C76.3 75.6001 82.34 86.2 88.52 96.73C88.8835 97.2318 89.0792 97.8355 89.0792 98.455C89.0792 99.0746 88.8835 99.6783 88.52 100.18C83.68 108.46 78.9099 116.77 74.1099 125.08C73.7999 125.58 73.4599 126.04 72.9799 126.75Z" fill="#A93FFD"/>
<path d="M110.77 1.70996L122.689 22.3499C130.269 35.4699 137.853 48.5866 145.439 61.7C146.029 62.7 146.44 63.5499 145.68 64.7899C134.226 84.5033 122.81 104.23 111.43 123.97C111.3 124.2 111.14 124.41 110.77 124.97V1.70996Z" fill="#A93FFD"/>
<path d="M36.37 117.3L49.99 93.74C50.89 95.28 51.7401 96.6 52.4101 97.99C52.4631 98.2425 52.4637 98.5032 52.4122 98.756C52.3606 99.0089 52.2577 99.2484 52.11 99.46C46.97 108.42 41.8134 117.363 36.6401 126.29C36.5801 126.39 36.4201 126.44 36.1601 126.59C33.4401 121.92 30.7201 117.27 28.0201 112.59C18.8667 96.7367 9.71332 80.8866 0.559981 65.04C0.220628 64.6058 0.0256766 64.0764 0.00236372 63.5259C-0.0209492 62.9753 0.128662 62.4312 0.430098 61.97C12.2501 41.6233 24.0334 21.25 35.7801 0.849976C35.9001 0.639976 36.04 0.44 36.32 0C38.74 4.19 41.06 8.17998 43.32 12.17C46 16.81 48.5901 21.52 51.4101 26.08C52.4701 27.81 52.65 29.18 51.35 30.76C50.8323 31.5099 50.3678 32.2951 49.96 33.11L36.3901 9.64001C36.027 10.0391 35.6929 10.4635 35.3901 10.91C25.5301 27.9833 15.6867 45.0634 5.86003 62.15C5.67365 62.5015 5.5663 62.8895 5.54558 63.2867C5.52485 63.684 5.59124 64.0811 5.74003 64.45C15.64 81.73 25.58 98.9833 35.56 116.21C35.8 116.5 36.01 116.76 36.37 117.3Z" fill="#A93FFD"/>
<path d="M108.9 2.21014C108.9 5.80014 108.9 9.40011 108.9 12.9901C108.811 13.6523 108.564 14.2833 108.18 14.8301C97.9999 32.4701 87.8065 50.1101 77.5998 67.7501C77.3398 68.2001 77.0298 68.6301 76.5998 69.3201C75.4998 67.4401 74.4098 65.7901 73.5998 64.0301C73.5296 63.6875 73.528 63.3344 73.5949 62.9911C73.6618 62.6479 73.796 62.3212 73.9898 62.0301C80.9965 49.8301 88.0298 37.6401 95.0898 25.4601C99.5898 17.6935 104.083 9.92014 108.57 2.14014L108.9 2.21014Z" fill="#A93FFD"/>
<path d="M80.7701 76.0801C77.2801 73.0801 78.2801 70.3301 80.2801 66.9601C89.6001 51.2001 98.66 35.3001 107.82 19.4501C108.049 19.0193 108.362 18.6385 108.74 18.3301C108.55 22.5901 109.59 26.75 107.06 30.98C98.33 45.52 90 60.3 81.51 74.98C81.28 75.37 81.0001 75.7501 80.7701 76.0801Z" fill="#A93FFD"/>
<path d="M108.9 32.3698C108.9 35.2298 108.9 38.0898 108.9 40.9498C108.861 41.4791 108.693 41.9906 108.41 42.4398C100.677 55.8532 92.9366 69.2565 85.19 82.6498C85.0146 82.8821 84.8243 83.1025 84.62 83.3098C83.7075 81.9335 82.9082 80.4854 82.23 78.9798C82 78.3798 82.5 77.3698 82.9 76.6798C89.1134 65.8731 95.3433 55.0798 101.59 44.2998L108.52 32.2998L108.9 32.3698Z" fill="#A93FFD"/>
<path d="M88.6903 90.3698C87.7903 88.8198 86.9804 87.5298 86.3004 86.1698C86.2015 85.9444 86.1504 85.7009 86.1504 85.4548C86.1504 85.2087 86.2015 84.9652 86.3004 84.7398C93.6704 71.9098 101.08 59.0898 108.68 46.3198C108.49 50.5798 109.61 54.7698 107.01 58.9698C101.01 68.6598 95.5403 78.6498 89.8403 88.5098C89.5603 89.0698 89.1803 89.5998 88.6903 90.3698Z" fill="#A93FFD"/>
<path d="M92.8593 97.2901C90.3393 94.3701 89.9193 91.9401 92.0793 88.5001C97.6093 79.7201 102.569 70.5801 107.759 61.5801C108.019 61.1301 108.329 60.7201 108.869 59.8901C108.869 65.0501 109.399 69.6201 106.469 74.0801C102.009 80.8401 98.2492 88.0801 94.1892 95.0801C93.7892 95.7501 93.3693 96.4301 92.8593 97.2901Z" fill="#A93FFD"/>
<path d="M96.8792 104.27C96.7189 104.11 96.5686 103.939 96.4293 103.76C93.8393 99.6801 93.8492 99.6901 96.2592 95.5201C100.349 88.4601 104.429 81.3901 108.719 74.3701C108.539 78.6401 109.799 82.9101 107.049 87.0301C103.669 92.0901 100.869 97.5301 97.8091 102.8C97.5491 103.25 97.2592 103.68 96.8792 104.27Z" fill="#A93FFD"/>
<path d="M108.91 88.3701C108.91 91.3701 108.91 94.2701 108.91 97.1901C108.872 97.5847 108.742 97.9648 108.53 98.3001C106.07 102.59 103.59 106.86 100.92 111.47C99.92 109.79 99.06 108.35 98.27 106.86C98.13 106.6 98.27 106.09 98.49 105.78C101.823 100.053 105.137 94.3268 108.43 88.6001C108.47 88.5101 108.62 88.4901 108.91 88.3701Z" fill="#A93FFD"/>
<path d="M104.08 116.64C102.08 114.74 102.08 112.98 103.57 110.79C105.44 108.13 106.89 105.18 108.57 102.28C110.37 108.16 106.61 112.15 104.08 116.64Z" fill="#A93FFD"/>
<path d="M108.86 113.28V124.6L108.55 124.76C107.55 122.96 106.43 121.17 105.44 119.34C105.385 119.159 105.37 118.968 105.394 118.78C105.418 118.592 105.481 118.412 105.58 118.25C106.58 116.52 107.58 114.83 108.58 113.13L108.86 113.28Z" fill="#A93FFD"/>
</svg>
