<svg width="180" height="191" viewBox="0 0 180 191" fill="none" xmlns="http://www.w3.org/2000/svg">
<path d="M176.718 85.9109C176.25 85.7617 175.782 85.6532 175.28 85.5379C171.387 84.6335 167.489 83.7292 163.587 82.8248C163.017 82.696 163.017 82.662 162.99 82.4247C162.328 76.3081 160.962 70.2884 158.921 64.4847C158.778 64.0642 158.785 63.9625 159.171 63.6641C161.491 61.8803 163.818 60.0286 166.069 58.238L168.864 56.0201C171.441 53.9853 171.76 52.6288 170.288 49.8276C168.735 46.8975 167.27 44.3202 165.812 41.9531C160.682 33.566 154.116 26.1478 146.413 20.0386C144.053 18.1666 143.192 18.1462 140.662 19.9097C140.499 20.0182 140.343 20.1403 140.187 20.2624L137.874 22.114C135.473 24.0267 132.991 26.0072 130.569 27.9945C130.264 28.2455 130.217 28.2319 129.891 28.042C124.792 24.8028 119.328 22.1779 113.613 20.2217C113.016 20.025 112.894 19.8487 112.901 19.2043C112.901 16.7423 112.901 14.2327 112.901 11.8113C112.901 10.0139 112.901 8.22338 112.901 6.426C112.901 4.62861 112.507 2.69551 109.509 2.20038L106.573 1.70527C104.009 1.25762 101.35 0.803175 98.7184 0.504742C89.1696 -0.562908 79.5071 0.0662453 70.1774 2.36316C67.9256 2.90577 67.2405 3.80107 67.2202 6.18854C67.2202 7.67392 67.2202 9.15256 67.2202 10.6312V11.9131H67.1795V12.5913C67.1795 13.2018 67.1795 13.819 67.1795 14.4362C67.1795 15.9012 67.1795 17.4069 67.227 18.8991C67.2676 19.7741 67.071 20.0453 66.1824 20.3573C60.8544 22.1027 55.7836 24.5526 51.1048 27.6419C50.1824 28.2726 49.8093 28.1776 49.009 27.5265C45.3599 24.5558 42.5316 22.3175 39.8525 20.2624C36.9224 18.0242 36.0407 18.0513 33.131 20.4795C27.3148 25.2978 22.1203 30.8204 17.6667 36.9204C14.4927 41.2454 11.7657 45.8813 9.52763 50.7568C8.68659 52.5949 8.97824 53.965 10.4568 55.1927C13.57 57.7768 17.002 60.5237 20.9563 63.5962C21.465 63.9828 21.4446 64.0371 21.3022 64.4508C19.315 69.9988 17.9967 75.7641 17.3751 81.6243C17.2733 82.5942 16.9885 82.7977 16.0592 82.9808C12.4102 83.7676 8.71372 84.6358 5.14609 85.47L4.23722 85.6803C1.39532 86.3585 0.588197 87.3895 0.62211 90.3196C0.727924 100.551 2.57665 110.689 6.08887 120.299C6.94347 122.639 8.0219 125.162 9.48015 128.241C10.4297 130.276 11.6302 130.832 13.8888 130.33C17.9584 129.428 22.3263 128.444 26.6672 127.373C27.2912 127.217 27.4336 127.318 27.7388 127.8C31.0033 132.987 34.8416 137.79 39.181 142.118C39.2255 142.28 39.2255 142.451 39.181 142.613C38.2654 144.56 37.3158 146.527 36.4002 148.433C35.4099 150.467 34.3654 152.624 33.4023 154.734C32.4391 156.843 32.724 157.996 34.4604 159.481C35.498 160.405 36.597 161.257 37.7499 162.032C40.3341 163.741 43.1013 165.545 45.95 167.227C46.4045 167.493 46.9081 167.663 47.4304 167.728C47.9527 167.794 48.4828 167.752 48.9886 167.607C49.416 167.493 49.8163 167.294 50.1657 167.022C50.5152 166.751 50.8068 166.412 51.0234 166.027C51.4518 165.149 51.5318 164.143 51.2474 163.209C50.9629 162.275 50.3352 161.483 49.4905 160.994C46.9471 159.414 44.4511 157.826 42.0704 156.246C41.689 156.037 41.3396 155.774 41.0327 155.466C41.1454 155.031 41.3165 154.614 41.5414 154.225C43.5761 150.033 45.3464 146.371 46.9674 143.013C47.37 142.312 47.5085 141.489 47.358 140.695C47.2075 139.9 46.7779 139.185 46.1467 138.679C40.8053 133.768 36.2325 128.082 32.5816 121.811C31.2658 119.607 30.2077 119.166 27.6574 119.776C23.8999 120.644 19.6337 121.628 15.4488 122.645C14.9062 122.774 14.8587 122.7 14.7163 122.299C14.3636 121.329 13.9906 120.366 13.6243 119.41C13.0546 117.931 12.4713 116.405 11.9626 114.886C9.62184 107.822 8.25278 100.472 7.89303 93.0394C7.85233 92.3137 7.97442 92.1644 8.76119 91.9948C12.6544 91.1606 16.5883 90.245 20.4001 89.3565H20.4747C23.4251 88.6782 24.0627 87.9389 24.2865 85.0088C24.7968 78.1484 26.3426 71.4047 28.8715 65.007C29.8889 62.4364 29.5498 61.2427 27.3387 59.4657C23.5472 56.4406 20.4679 54.0396 17.6599 51.8149C17.2258 51.4758 17.2394 51.4147 17.4564 51.0146C20.2102 45.9887 22.6926 41.8988 25.8397 38.2769C28.1187 35.6588 30.5875 33.1289 33.0021 30.6872C33.9743 29.697 34.9419 28.7044 35.905 27.7097C36.1252 27.4661 36.3633 27.2394 36.6172 27.0314C36.9121 27.2007 37.1912 27.3959 37.4515 27.6147L37.6414 27.7571L40.5986 30.1107L47.0149 35.2044C48.5342 36.4117 49.9721 36.9339 52.0747 35.5774L52.407 35.3604C54.0213 34.3226 55.683 33.2442 57.3719 32.2879C61.9026 29.7296 66.6904 27.6563 71.656 26.1022C73.7518 25.4239 74.3215 24.705 74.43 22.4871C74.4707 21.5986 74.4707 20.7033 74.43 19.8351V15.8063C74.43 13.6562 74.43 11.4993 74.43 9.34924C74.43 9.28141 74.43 9.21356 74.43 9.14573C74.4223 9.01698 74.4223 8.88791 74.43 8.75916C74.4904 8.73322 74.5545 8.71723 74.62 8.71172C75.8001 8.56928 76.9871 8.40646 78.1401 8.24368C79.7747 8.01985 81.4636 7.78243 83.1253 7.61965C89.3992 7.00244 96.1817 7.29415 104.504 8.53537C104.891 8.56802 105.274 8.64538 105.643 8.76595C105.722 9.16789 105.747 9.57834 105.718 9.9868C105.718 11.4111 105.718 12.8355 105.718 14.2598C105.718 16.9728 105.718 19.6859 105.718 22.3989C105.718 24.1895 106.539 25.4647 107.95 25.9055C115.002 28.08 121.699 31.272 127.829 35.3807C130.19 36.9814 131.356 36.6694 133.459 34.9873L142.235 27.9877C142.612 27.6302 143.045 27.3369 143.517 27.1196C143.962 27.3577 144.366 27.667 144.711 28.0352L144.772 28.0895C152.024 34.5449 158.083 42.2271 162.671 50.784C162.99 51.3809 162.949 51.4622 162.529 51.7946C160.128 53.653 157.72 55.5793 155.394 57.4377L153.115 59.2554C150.598 61.2902 150.313 62.2669 151.426 65.1969C153.878 71.5883 155.41 78.2953 155.977 85.1174C156.214 88.0067 156.791 88.685 159.633 89.3497C163.553 90.2721 167.406 91.1403 171.339 92.022C171.674 92.0804 172.003 92.1666 172.323 92.2797C172.36 92.611 172.36 92.9455 172.323 93.2768C172.174 95.3929 171.997 97.3463 171.787 99.1708C170.834 107.064 168.767 114.782 165.649 122.096C165.378 122.774 165.303 122.774 164.733 122.625C160.664 121.648 156.723 120.753 153.026 119.912C149.764 119.186 149.072 119.491 147.329 122.388C143.988 128.071 139.849 133.247 135.039 137.757C132.543 140.063 132.326 141.148 133.784 144.187C135.636 148.066 137.311 151.498 138.898 154.686C139.258 155.398 139.197 155.514 138.695 155.826C136.986 156.911 135.263 158.044 133.601 159.136C132.597 159.814 131.566 160.492 130.576 161.123C129.769 161.636 129.182 162.433 128.931 163.356C128.68 164.279 128.783 165.263 129.22 166.115C129.541 166.644 129.998 167.079 130.542 167.375C131.087 167.67 131.7 167.816 132.319 167.797C132.901 167.799 133.475 167.664 133.995 167.404C135.331 166.732 136.622 165.976 137.861 165.138C141.143 162.886 143.633 161.069 145.945 159.373C146.895 158.654 147.865 157.338 147.051 155.154C146.89 154.725 146.705 154.306 146.495 153.899L145.125 150.983C143.768 148.27 142.412 145.421 141.055 142.627C141.013 142.491 141.001 142.347 141.021 142.206C145.47 137.746 149.419 132.813 152.796 127.495C152.925 127.394 153.08 127.332 153.244 127.318C157.232 128.193 161.952 129.245 166.741 130.411C167.396 130.594 168.093 130.561 168.729 130.317C169.364 130.072 169.904 129.63 170.268 129.055C170.64 128.571 170.945 128.039 171.177 127.475C171.516 126.627 171.855 125.779 172.214 124.938C173.164 122.625 174.141 120.231 174.927 117.823C177.964 108.798 179.542 99.3464 179.601 89.8245C179.634 87.6201 178.848 86.5892 176.718 85.9109Z" fill="#A93FFD"/>
<path d="M123.562 149.334C122.906 147.833 121.945 146.484 120.74 145.374C119.535 144.263 118.112 143.416 116.562 142.884C115.938 142.654 115.803 142.45 115.884 141.86C116.012 140.65 116.031 139.431 115.938 138.218C115.864 137.302 116.162 136.8 117.139 136.231C129.239 129.116 137.487 118.854 141.556 105.709C145.917 91.7708 144.866 78.321 138.429 65.7325C129.442 48.1657 115.192 38.1546 96.0655 35.9774C86.4817 34.8922 77.5423 36.0181 69.4913 39.3687C61.4404 42.7193 54.3323 48.186 48.2076 55.6468C37.81 68.3913 34.0931 83.1434 37.1521 99.4962C39.9872 114.635 48.0516 126.552 61.1217 134.915C63.4956 136.441 64.7232 137.811 64.4248 140.694C64.2688 142.206 64.1128 142.728 62.9055 143.291C58.0356 145.502 55.4446 149.511 55.4853 154.869V159.488H55.4243V162.038C55.4243 163.395 55.4243 164.826 55.4243 166.216C55.3854 167.988 55.7177 169.748 56.3999 171.383C57.0821 173.019 58.099 174.493 59.3853 175.712C62.017 178.201 65.415 179.293 69.7559 179.042C70.5087 179.001 70.6783 179.13 70.9428 179.897C73.1336 186.401 77.7254 190.145 84.2638 190.749C86.1154 190.912 88.0485 191 90.09 191C91.867 191 93.7255 190.932 95.6924 190.81C101.037 190.471 105.31 187.751 108.05 182.942C108.535 182.037 108.939 181.09 109.258 180.114L109.515 179.402C109.678 178.961 109.719 178.954 110.085 179.008C111.075 179.127 112.075 179.145 113.069 179.063C116.17 178.917 119.101 177.601 121.268 175.379C123.436 173.157 124.68 170.195 124.749 167.091C124.857 162.343 124.851 158.077 124.715 153.953C124.627 152.355 124.236 150.787 123.562 149.334ZM117.566 160.987C117.566 162.893 117.6 164.86 117.566 166.793C117.539 168.133 116.985 169.408 116.024 170.341C115.063 171.274 113.772 171.791 112.432 171.778C111.258 171.825 110.058 171.825 108.891 171.819H106.945C104.198 171.819 103.255 172.667 102.916 175.332C102.448 179.056 101.125 181.24 98.6293 182.413C97.1873 183.082 95.6314 183.471 94.0443 183.559C90.6123 183.722 87.2617 183.559 84.6572 183.458C83.3186 183.311 82.0374 182.835 80.9282 182.071C79.8191 181.308 78.9167 180.281 78.3019 179.083C78.4894 179.073 78.6773 179.073 78.8649 179.083H80.4723C83.0497 179.083 85.7085 179.049 88.3265 179.083C89.1449 179.157 89.9642 178.952 90.6513 178.501C91.3384 178.05 91.8529 177.38 92.1112 176.6C92.7895 174.783 91.745 173.419 90.8836 172.531C90.3059 172.073 89.5856 171.833 88.8488 171.853C84.6233 171.853 80.3299 171.853 76.179 171.812H69.0233C67.7414 171.812 66.4121 171.812 65.2522 171.059C64.4545 170.592 63.7953 169.922 63.3423 169.116C62.8894 168.31 62.659 167.398 62.6749 166.474C62.6274 162.737 62.6274 158.857 62.6749 154.944C62.6731 154.222 62.8137 153.507 63.0886 152.84C63.3636 152.172 63.7675 151.566 64.2772 151.055C64.7869 150.544 65.3924 150.139 66.059 149.862C66.7256 149.585 67.4402 149.443 68.162 149.443C73.995 149.443 79.8325 149.443 85.6746 149.443C94.2952 149.443 103.214 149.49 111.984 149.443C112.761 149.441 113.531 149.594 114.249 149.894C114.966 150.193 115.617 150.632 116.162 151.186C116.656 151.69 117.041 152.291 117.293 152.95C117.545 153.609 117.659 154.313 117.627 155.018C117.525 157.006 117.546 159.027 117.566 160.987ZM108.654 138.604C108.654 139.113 108.654 139.635 108.654 140.144C108.654 140.653 108.654 141.317 108.654 141.914C108.662 141.986 108.662 142.059 108.654 142.131C108.588 142.137 108.523 142.137 108.457 142.131H105.982H103.174H89.3304H85.0641C81.1235 142.131 77.0471 142.131 73.0454 142.131H72.5842C72.1569 142.131 71.7432 142.131 71.5329 142.131C71.5329 141.996 71.5329 141.785 71.5329 141.596C71.5329 141.406 71.5329 141.019 71.5329 140.639C71.5329 140.259 71.5329 139.961 71.5329 139.601C71.557 138.307 71.4868 137.013 71.3226 135.729C70.8614 132.724 68.6639 131.055 66.7987 129.936C54.1017 122.313 46.4984 111.454 44.1924 97.6717C41.1945 79.6843 46.6612 64.8508 60.4705 53.585C75.3108 41.4442 91.8535 39.3415 109.637 47.2296C121.107 52.3437 129.205 60.9847 133.715 72.9017C138.931 86.6839 137.785 100.249 130.324 113.217C126.362 120.134 120.607 125.854 113.666 129.774C110.126 131.829 108.498 134.704 108.654 138.591V138.604Z" fill="#A93FFD"/>
<path d="M122.742 78.8771C122.344 77.6633 121.632 76.576 120.68 75.7246C119.727 74.8732 118.567 74.2879 117.316 74.0275C113.85 73.3493 110.303 72.8202 106.864 72.3183L103.27 71.7961C103.03 71.783 102.8 71.6994 102.608 71.5558C102.416 71.4122 102.271 71.2149 102.191 70.9889C100.292 67.0754 98.2845 63.033 96.2158 58.9567C94.8186 56.1894 92.3158 54.765 89.0127 54.8871C87.6316 54.8823 86.2783 55.2757 85.115 56.0203C83.9517 56.765 83.0278 57.8292 82.454 59.0855C80.5481 62.8499 78.5337 66.8584 76.6277 70.8262C76.5347 71.0993 76.3637 71.3393 76.1359 71.5164C75.9082 71.6936 75.6335 71.8002 75.3458 71.8232C71.1135 72.4404 66.7523 73.1119 62.3911 73.8037C60.6675 74.0177 59.0628 74.7949 57.8265 76.0148C54.7133 79.1958 54.8557 83.9368 58.1656 87.2942C61.6315 90.8076 64.487 93.5952 67.1661 96.1116C67.4849 96.3657 67.7201 96.7098 67.841 97.0993C67.962 97.4887 67.9631 97.9055 67.8443 98.2956C67.1661 102.053 66.3454 106.489 65.64 110.891C65.462 111.967 65.5177 113.07 65.8033 114.123C66.0888 115.176 66.5975 116.156 67.2949 116.995C68.0298 117.896 68.9471 118.63 69.9864 119.15C71.0257 119.671 72.1634 119.965 73.3246 120.013H73.4399L73.5485 119.979C73.8537 119.884 74.1657 119.803 74.4845 119.722C75.2311 119.552 75.9583 119.307 76.6549 118.989C79.0559 117.789 81.4705 116.534 83.8173 115.327C85.574 114.418 87.3306 113.509 89.0941 112.614C89.2716 112.549 89.466 112.549 89.6435 112.614C90.1331 112.825 90.6108 113.063 91.0746 113.326L91.7529 113.685C92.8381 114.248 93.9165 114.825 94.9949 115.401C97.4095 116.69 99.9123 118.019 102.456 119.179C103.684 119.747 105.044 119.97 106.389 119.824C107.734 119.678 109.015 119.169 110.093 118.352C111.197 117.55 112.063 116.463 112.597 115.208C113.131 113.952 113.314 112.575 113.125 111.223C112.657 107.689 112.019 104.122 111.402 100.669C111.232 99.7267 111.063 98.7839 110.9 97.8479C110.815 97.5718 110.813 97.2765 110.897 96.9998C110.98 96.7231 111.144 96.4776 111.368 96.2947C112.725 95.0399 114.04 93.7173 115.322 92.4422L116.265 91.5062C116.76 91.0179 117.269 90.5295 117.778 90.0412C119.005 88.861 120.28 87.6402 121.413 86.3108C122.276 85.302 122.854 84.0813 123.088 82.7745C123.321 81.4678 123.202 80.1224 122.742 78.8771ZM103.338 96.5118C104.111 100.88 104.857 105.329 105.583 109.636L105.677 110.179C105.787 110.794 105.846 111.418 105.854 112.044C105.861 112.211 105.842 112.378 105.8 112.539C105.631 112.541 105.465 112.499 105.318 112.417C104.328 111.99 103.338 111.481 102.381 110.979L101.811 110.687C100.998 110.267 100.184 109.846 99.3629 109.433C96.833 108.13 94.215 106.787 91.6783 105.404C90.9746 104.997 90.1782 104.777 89.3654 104.766C88.5009 104.783 87.6545 105.016 86.9033 105.444C83.8241 107.099 80.6702 108.748 77.6248 110.341L74.7354 111.854C74.3624 112.051 73.9758 112.227 73.5959 112.39C73.2161 112.553 73.033 112.532 72.9584 112.478C72.8838 112.424 72.7617 112.2 72.7753 111.678L73.2365 108.965C73.6027 106.828 73.9826 104.637 74.3556 102.44C74.5523 101.287 74.749 100.127 74.9389 98.9738L75.4476 95.9352C75.5453 95.3951 75.5003 94.8388 75.3171 94.3213C75.1339 93.8039 74.8189 93.3432 74.4031 92.9848C71.5612 90.2311 68.6922 87.4095 65.9113 84.6762L63.9511 82.7431C63.6796 82.4823 63.4259 82.2035 63.1915 81.9089C63.0063 81.714 62.8631 81.4831 62.771 81.2306C62.9999 81.0968 63.2538 81.0114 63.517 80.9797C65.0567 80.688 66.637 80.4439 68.1631 80.2065C68.9228 80.0912 69.6892 79.9758 70.4488 79.847L72.4836 79.5214C74.81 79.1484 77.2314 78.7617 79.5782 78.3073C79.9851 78.2125 80.3686 78.0362 80.7054 77.789C81.0423 77.5419 81.3257 77.2291 81.5383 76.8694C82.7117 74.6651 83.8444 72.4065 84.9296 70.2157L86.3268 67.4485L86.8762 66.3496C87.4663 65.1695 88.0767 63.9486 88.7346 62.7888C89.1619 62.0427 89.4129 61.941 89.4129 61.9342C89.4129 61.9274 89.6571 62.0495 90.0233 62.7685C91.1764 64.9864 92.3091 67.2721 93.4146 69.4832C93.9776 70.6159 94.5405 71.7554 95.1103 72.8745C95.3409 73.3357 95.585 73.7902 95.8292 74.231C96.2294 74.9839 96.6431 75.7707 96.989 76.5507C97.2059 77.0789 97.5621 77.5383 98.0196 77.8799C98.4771 78.2215 99.0187 78.4326 99.5868 78.4905L112.494 80.4845L113.064 80.5727C113.8 80.6662 114.531 80.7975 115.254 80.9661C115.499 81.0085 115.731 81.1059 115.933 81.251C115.933 81.251 115.933 81.4544 115.539 81.8275C113.016 84.4116 110.419 86.9687 107.909 89.4375C107.176 90.1633 106.403 90.8755 105.65 91.5673L104.626 92.51C104.073 93.0009 103.66 93.6305 103.431 94.334C103.202 95.0374 103.165 95.7892 103.324 96.5118H103.338Z" fill="#A93FFD"/>
</svg>
