<svg width="466" height="119" viewBox="0 0 466 119" fill="none" xmlns="http://www.w3.org/2000/svg">
<path d="M77.9195 39.0807C78.1405 38.9264 78.3996 38.8355 78.6686 38.818C78.9376 38.8006 79.2062 38.8571 79.4453 38.9816C79.6844 39.106 79.8849 39.2936 80.0249 39.5239C80.165 39.7542 80.2393 40.0185 80.2397 40.2881V70.3333C80.2397 78.8256 80.3478 87.3225 80.1361 95.8103C80.0978 97.3083 79.0976 99.2951 77.897 100.167C69.461 106.296 60.8808 112.227 52.2736 118.111C51.35 118.744 49.6741 119.264 48.8226 118.854C43.3555 116.217 37.9898 113.374 32.1849 110.349C31.9669 110.235 31.7807 110.07 31.6432 109.866C31.5057 109.663 31.4212 109.428 31.3975 109.184C31.3738 108.939 31.4116 108.693 31.5074 108.466C31.6032 108.24 31.754 108.042 31.9461 107.889C32.4845 107.461 32.9823 107.076 33.4959 106.715C41.344 101.223 49.165 95.6774 57.0919 90.3139C59.2184 88.8722 60.0924 87.2954 60.0473 84.6689C59.8739 74.7214 60.0158 64.7716 59.8964 54.8219C59.8694 52.5062 60.6015 51.0195 62.5432 49.7242C67.5598 46.3724 72.4817 42.8831 77.9195 39.0807Z" fill="white"/>
<path d="M0.473243 116.878C0.473243 109.265 0.356096 102.034 0.60163 94.8163C0.637672 93.7621 2.2618 92.5637 3.38585 91.7753C11.3871 86.0807 19.3794 80.3749 27.5338 74.8965C29.8517 73.34 30.7032 71.628 30.6446 68.9249C30.4441 59.3446 30.4734 49.7597 30.3 40.1794C30.2482 37.2308 31.3362 35.3543 33.8366 33.6469C48.3366 23.6971 62.7014 13.5604 77.1181 3.50478C77.8727 2.97767 78.6949 2.53616 79.9699 1.75C79.9699 9.63411 80.0465 16.9731 79.8685 24.3143C79.8482 25.1928 78.5778 26.2223 77.6655 26.8688C69.3534 32.7526 61.0435 38.6431 52.6075 44.3467C50.5283 45.7524 49.7647 47.3112 49.7782 49.7282C49.8391 59.7973 49.8526 69.8687 49.6363 79.9334C49.6025 81.4697 48.6745 83.5511 47.4671 84.4071C32.449 95.0731 17.3024 105.559 2.18973 116.081C1.8203 116.333 1.37429 116.464 0.473243 116.878Z" fill="#A93EFC"/>
<path d="M48.7486 9.05521C48.9077 9.13923 49.0426 9.26255 49.1406 9.41345C49.2385 9.56435 49.2962 9.7378 49.3082 9.9173C49.3202 10.0968 49.286 10.2764 49.2089 10.4389C49.1319 10.6015 49.0145 10.7417 48.868 10.846C41.2091 16.2523 34.19 21.5684 26.7294 26.1637C21.6768 29.2746 19.8116 32.8743 20.1968 38.7783C20.7532 47.2256 20.3951 55.7404 20.2914 64.2328C20.2757 65.546 19.9603 67.4089 19.075 68.0622C13.5449 72.2025 7.85031 76.1265 1.81107 80.3682C1.66134 80.4735 1.48673 80.5379 1.30446 80.5551C1.12219 80.5722 0.938594 80.5415 0.77183 80.466C0.605066 80.3904 0.460908 80.2727 0.353592 80.1244C0.246276 79.9761 0.179514 79.8023 0.159926 79.6203C0.0958983 79.106 0.059808 78.5887 0.0518055 78.0705C0.0382899 60.0091 0.0765885 41.9455 0 23.8841C0 21.4873 0.599193 19.9375 2.70312 18.5139C11.0393 12.8929 19.2748 7.12398 27.4097 1.20714C29.4956 -0.30886 31.1039 -0.358419 33.2664 0.842219C38.2109 3.59265 43.2365 6.17188 48.7486 9.05521Z" fill="white"/>
<path d="M129.686 81.5795C125.235 81.5795 121.212 80.8144 117.614 79.2843C114.078 77.7542 111.274 75.5508 109.201 72.6742C107.128 69.7976 106.061 66.4008 106 62.4837H119.718C119.901 65.1155 120.815 67.1964 122.461 68.7266C124.168 70.2567 126.485 71.0217 129.412 71.0217C132.399 71.0217 134.746 70.3179 136.454 68.9102C138.161 67.4413 139.014 65.5439 139.014 63.2182C139.014 61.3208 138.435 59.7601 137.277 58.536C136.118 57.3119 134.655 56.3633 132.887 55.69C131.18 54.9556 128.802 54.1599 125.754 53.3031C121.608 52.079 118.224 50.8855 115.602 49.7226C113.042 48.4985 110.816 46.693 108.926 44.306C107.097 41.8578 106.183 38.614 106.183 34.5745C106.183 30.7799 107.128 27.4748 109.018 24.6594C110.908 21.844 113.56 19.7019 116.974 18.233C120.388 16.7029 124.29 15.9378 128.68 15.9378C135.265 15.9378 140.599 17.5597 144.684 20.8036C148.83 23.9862 151.116 28.4541 151.543 34.2073H137.46C137.338 32.0039 136.393 30.1984 134.625 28.7907C132.917 27.3218 130.631 26.5874 127.766 26.5874C125.266 26.5874 123.254 27.23 121.73 28.5153C120.267 29.8006 119.535 31.6673 119.535 34.1155C119.535 35.8292 120.084 37.2675 121.181 38.4304C122.339 39.5321 123.742 40.4501 125.388 41.1846C127.095 41.8578 129.473 42.6535 132.521 43.5716C136.667 44.7957 140.051 46.0197 142.672 47.2438C145.294 48.4679 147.55 50.304 149.44 52.7522C151.33 55.2004 152.275 58.4136 152.275 62.3919C152.275 65.8193 151.391 69.002 149.623 71.9398C147.855 74.8776 145.263 77.234 141.849 79.0089C138.435 80.7226 134.381 81.5795 129.686 81.5795Z" fill="white"/>
<path d="M193.371 80.9368L176.178 59.2705V80.9368H163.375V13H176.178V51.6505L193.188 30.076H209.833L187.518 55.5982L210.015 80.9368H193.371Z" fill="white"/>
<path d="M265.251 30.076L233.883 104.99H220.257L231.231 79.6515L210.928 30.076H225.286L238.364 65.6051L251.625 30.076H265.251Z" fill="white"/>
<path d="M291.998 29.2498C295.778 29.2498 299.101 30.0148 301.966 31.5449C304.832 33.0138 307.088 34.9418 308.734 37.3287V30.076H321.628V81.304C321.628 86.0168 320.683 90.2093 318.793 93.8815C316.903 97.615 314.068 100.553 310.288 102.695C306.508 104.898 301.936 106 296.571 106C289.376 106 283.462 104.317 278.829 100.951C274.256 97.5844 271.665 92.9941 271.055 87.1797H283.767C284.438 89.5054 285.871 91.3416 288.066 92.6881C290.321 94.0958 293.034 94.7996 296.205 94.7996C299.924 94.7996 302.942 93.6673 305.259 91.4028C307.575 89.1994 308.734 85.8332 308.734 81.304V73.4087C307.088 75.7957 304.801 77.7848 301.875 79.3761C299.009 80.9674 295.717 81.7631 291.998 81.7631C287.73 81.7631 283.828 80.6614 280.292 78.458C276.756 76.2547 273.951 73.1639 271.879 69.1856C269.867 65.1461 268.861 60.5252 268.861 55.3228C268.861 50.1816 269.867 45.6219 271.879 41.6436C273.951 37.6653 276.725 34.6051 280.201 32.463C283.737 30.3208 287.669 29.2498 291.998 29.2498ZM308.734 55.5064C308.734 52.385 308.124 49.7226 306.905 47.5192C305.685 45.2547 304.039 43.541 301.966 42.3781C299.893 41.154 297.668 40.542 295.29 40.542C292.913 40.542 290.718 41.1234 288.706 42.2863C286.694 43.4492 285.048 45.1629 283.767 47.4274C282.548 49.6308 281.938 52.2626 281.938 55.3228C281.938 58.383 282.548 61.076 283.767 63.4018C285.048 65.6663 286.694 67.4107 288.706 68.6348C290.779 69.8588 292.973 70.4709 295.29 70.4709C297.668 70.4709 299.893 69.8894 301.966 68.7266C304.039 67.5025 305.685 65.7887 306.905 63.5854C308.124 61.3208 308.734 58.6278 308.734 55.5064Z" fill="#A93EFC"/>
<path d="M381.231 54.4047C381.231 56.2409 381.109 57.8934 380.865 59.3623H343.827C344.132 63.0345 345.412 65.9112 347.668 67.9921C349.924 70.0731 352.698 71.1135 355.99 71.1135C360.746 71.1135 364.129 69.0632 366.141 64.9625H379.951C378.487 69.8588 375.683 73.8983 371.537 77.0809C367.391 80.2024 362.3 81.7631 356.265 81.7631C351.387 81.7631 346.997 80.692 343.095 78.5499C339.254 76.3465 336.237 73.2557 334.042 69.2774C331.908 65.2991 330.841 60.7088 330.841 55.5064C330.841 50.2428 331.908 45.6219 334.042 41.6436C336.176 37.6653 339.163 34.6051 343.004 32.463C346.845 30.3208 351.265 29.2498 356.265 29.2498C361.081 29.2498 365.379 30.2902 369.159 32.3712C373 34.4521 375.957 37.4205 378.03 41.2764C380.164 45.0711 381.231 49.4472 381.231 54.4047ZM367.97 50.7325C367.909 47.4274 366.721 44.7957 364.404 42.8371C362.087 40.8174 359.252 39.8075 355.899 39.8075C352.728 39.8075 350.046 40.7868 347.851 42.7453C345.717 44.6426 344.406 47.305 343.919 50.7325H367.97Z" fill="#A93EFC"/>
<path d="M387.284 55.3228C387.284 50.1816 388.29 45.6219 390.302 41.6436C392.375 37.6653 395.149 34.6051 398.624 32.463C402.16 30.3208 406.093 29.2498 410.421 29.2498C414.201 29.2498 417.494 30.0148 420.298 31.5449C423.164 33.075 425.45 35.003 427.157 37.3287V30.076H440.052V80.9368H427.157V73.5005C425.511 75.8875 423.225 77.8766 420.298 79.4679C417.433 80.998 414.11 81.7631 410.33 81.7631C406.062 81.7631 402.16 80.6614 398.624 78.458C395.149 76.2547 392.375 73.1639 390.302 69.1856C388.29 65.1461 387.284 60.5252 387.284 55.3228ZM427.157 55.5064C427.157 52.385 426.547 49.7226 425.328 47.5192C424.109 45.2547 422.463 43.541 420.39 42.3781C418.317 41.154 416.091 40.542 413.714 40.542C411.336 40.542 409.141 41.1234 407.129 42.2863C405.117 43.4492 403.471 45.1629 402.191 47.4274C400.971 49.6308 400.362 52.2626 400.362 55.3228C400.362 58.383 400.971 61.076 402.191 63.4018C403.471 65.6663 405.117 67.4107 407.129 68.6348C409.202 69.8588 411.397 70.4709 413.714 70.4709C416.091 70.4709 418.317 69.8894 420.39 68.7266C422.463 67.5025 424.109 65.7887 425.328 63.5854C426.547 61.3208 427.157 58.6278 427.157 55.5064Z" fill="#A93EFC"/>
<path d="M458.227 81.5795C455.91 81.5795 453.989 80.8756 452.465 79.4679C451.002 77.999 450.27 76.1935 450.27 74.0513C450.27 71.9092 451.002 70.1343 452.465 68.7266C453.989 67.2576 455.91 66.5232 458.227 66.5232C460.482 66.5232 462.342 67.2576 463.805 68.7266C465.268 70.1343 466 71.9092 466 74.0513C466 76.1935 465.268 77.999 463.805 79.4679C462.342 80.8756 460.482 81.5795 458.227 81.5795Z" fill="#A93EFC"/>
</svg>
