<svg width="223" height="181" viewBox="0 0 223 181" fill="none" xmlns="http://www.w3.org/2000/svg">
<path d="M222.129 158.99C221.966 159.376 221.776 159.756 221.654 160.15C218.751 169.313 207.906 172.202 200.92 165.576C196.362 161.242 192.042 156.663 187.511 152.302C186.695 151.551 185.641 151.11 184.533 151.054C165.739 150.959 146.944 150.959 128.15 150.946C127.512 150.946 126.882 151.007 125.959 151.054C126.848 154.351 127.634 157.471 128.584 160.55C128.72 160.97 129.683 161.33 130.286 161.377C132.158 161.513 134.051 161.377 135.916 161.54C137.844 161.741 139.712 162.321 141.415 163.248C143.117 164.174 144.62 165.428 145.836 166.937C147.052 168.446 147.958 170.181 148.5 172.041C149.043 173.902 149.213 175.851 149 177.778C148.742 179.812 147.643 180.85 145.303 180.904C142.271 180.986 139.199 180.904 136.194 180.904L60.9482 180.85C56.492 180.85 55.5628 179.867 55.8341 175.471C56.3292 167.617 61.8163 162.028 69.6502 161.411L70.7287 161.337C72.5057 161.221 74.7982 161.723 75.9173 160.808C77.0365 159.892 77.1179 157.545 77.6062 155.816C78.0267 154.31 78.393 152.784 78.8745 150.925H70.8779C68.782 150.925 66.6862 150.98 64.5972 150.878C64.1949 150.893 63.7939 150.825 63.4187 150.679C63.0435 150.534 62.7022 150.312 62.4156 150.03C62.1291 149.747 61.9034 149.409 61.7525 149.035C61.6016 148.662 61.5287 148.262 61.5382 147.86C61.4229 146.028 62.5353 144.76 64.4886 144.509C65.352 144.428 66.2197 144.4 67.0864 144.428L176.591 144.475H179.616C176.225 141.084 173.227 137.977 170.154 134.98C169.924 134.749 169.117 134.98 168.655 135.136C165.569 136.431 163.399 136.058 160.957 133.691C159.343 132.131 157.708 130.591 156.209 128.943C155.219 127.824 154.473 127.77 153.103 128.462C132.803 138.751 112.258 139.219 91.5715 129.648C84.8745 126.521 78.7863 122.229 73.5909 116.972C73.1132 116.449 72.527 116.036 71.8733 115.763C71.2196 115.49 70.5141 115.363 69.8062 115.391C54.5522 115.446 39.2846 115.425 24.051 115.391C23.1134 115.426 22.1748 115.365 21.2498 115.208C20.483 115.104 19.7884 114.701 19.3162 114.088C18.844 113.475 18.6322 112.7 18.7267 111.932C18.722 111.196 18.9941 110.485 19.489 109.94C19.984 109.394 20.6657 109.055 21.399 108.989C22.189 108.896 22.9849 108.864 23.7797 108.894H66.2114C64.3801 105.923 62.8202 103.224 61.0567 100.66C60.7515 100.219 59.6052 100.239 58.8524 100.239C47.2135 100.239 35.5746 100.239 23.9357 100.239C22.9995 100.278 22.062 100.209 21.1413 100.036C20.4156 99.9124 19.7631 99.5198 19.3143 98.9364C18.8654 98.353 18.6531 97.6217 18.7199 96.8886C18.6939 96.1536 18.944 95.4354 19.4211 94.8755C19.8981 94.3157 20.5674 93.9547 21.2973 93.8636C22.0832 93.7503 22.878 93.7117 23.6712 93.7483H57.7468C56.7701 90.6894 55.8613 87.8475 54.8914 84.8292H52.5649C42.7302 84.8292 32.9 84.8292 23.0743 84.8292C20.0086 84.8292 18.903 83.7372 18.8894 80.6444C18.8623 72.546 18.8623 64.4499 18.8894 56.356C18.8894 53.4056 20.0357 52.2865 22.959 52.2865C32.8615 52.2865 42.7641 52.2865 52.6667 52.2865C54.1724 52.2865 54.9049 51.988 55.3797 50.367C56.4853 46.5009 57.9164 42.7366 59.2729 38.762H6.64016V144.401H47.7289C51.1745 144.401 52.8159 145.52 52.7413 147.792C52.6667 150.064 51.1338 150.919 47.7425 150.919C34.2271 150.919 20.7094 150.919 7.18951 150.919C1.76345 150.919 0 149.182 0 143.831V25.6581C0 20.5712 1.84486 18.6653 6.86396 18.6449C13.7279 18.6449 20.5987 18.6449 27.4626 18.6449C28.0407 18.6324 28.619 18.6641 29.1922 18.7399C31.0167 19.0247 32.0883 20.0964 32.0544 21.9616C32.0205 23.8268 30.9489 24.9052 29.104 25.0884C28.0204 25.1607 26.9338 25.1788 25.8484 25.1426H6.65374V31.9252C7.37269 31.9659 8.1255 32.0405 8.88515 32.0405C26.3028 32.0405 43.7272 32.0405 61.1109 32.1354C61.7781 32.2061 62.4511 32.0737 63.0417 31.7554C63.6323 31.4371 64.113 30.9478 64.4208 30.3517C65.4043 28.6899 66.632 27.1774 68.0699 25.163H45.9383C45.2159 25.1845 44.493 25.1551 43.7747 25.0748C41.896 24.8171 40.6208 23.4266 40.7836 21.731C40.7978 20.922 41.1292 20.1509 41.7064 19.5838C42.2836 19.0167 43.0605 18.699 43.8697 18.6992C44.548 18.6449 45.172 18.6992 45.8231 18.6992C54.6404 18.6992 63.4578 18.7467 72.2751 18.6381C73.5234 18.5689 74.7147 18.0924 75.6664 17.2816C88.2158 6.11708 104.437 -0.0348811 121.234 0.000148777C138.031 0.0351786 154.226 6.25472 166.729 17.4715C167.59 18.1829 168.665 18.5842 169.781 18.611C179.107 18.6992 188.433 18.6585 197.753 18.6653C202.86 18.6653 204.664 20.4898 204.664 25.5903C204.664 61.0089 204.653 96.4297 204.63 131.853C204.593 132.593 204.723 133.333 205.011 134.016C205.298 134.699 205.736 135.309 206.292 135.8C209.324 138.69 212.186 141.762 215.218 144.651C218.107 147.405 220.786 150.267 222 154.147L222.129 158.99ZM182.79 38.762C183.163 39.6641 183.516 40.3559 183.733 41.0816C185.347 46.5077 187.009 51.9745 188.481 57.4684C188.591 57.8924 188.611 58.3349 188.539 58.7671C188.467 59.1993 188.305 59.6115 188.063 59.9769C187.821 60.3422 187.505 60.6526 187.135 60.8876C186.766 61.1227 186.35 61.2772 185.917 61.3412C185.088 61.4795 184.237 61.2911 183.544 60.8155C182.851 60.34 182.369 59.6143 182.2 58.791C182.051 58.2348 181.936 57.6651 181.841 57.0953C176.157 24.2541 144.489 1.82413 111.478 7.25697C95.9315 9.75643 81.9263 18.0991 72.325 30.5797C62.7238 43.0603 58.2515 58.7365 59.8222 74.4044C62.6506 104.492 88.0716 128.624 118.241 129.852C134.119 130.536 149.654 125.095 161.636 114.652C173.617 104.209 181.129 89.5631 182.621 73.7397C182.865 71.1624 184.079 69.8601 186.134 69.9822C188.189 70.1043 189.451 71.6914 189.064 74.3773C188.535 78.0874 188.142 81.8381 187.029 85.4329C185.307 91.0556 183.055 96.5224 180.871 102.457C182.227 103.753 183.964 105.374 185.619 107.056C189.2 110.61 189.532 112.394 187.694 116.497C191.221 120.044 194.66 123.497 198.058 126.922V38.7484L182.79 38.762ZM174.651 130.035C174.807 130.205 175.072 130.544 175.37 130.842L204.915 160.38C205.267 160.744 205.643 161.084 206.041 161.398C206.787 161.972 207.66 162.359 208.586 162.527C209.513 162.696 210.466 162.64 211.366 162.365C212.267 162.091 213.089 161.605 213.764 160.948C214.438 160.291 214.946 159.483 215.245 158.59C216.201 155.829 215.13 153.699 213.21 151.807C203.457 142.076 193.71 132.334 183.97 122.581C183.618 122.228 183.231 121.903 182.994 121.72L174.651 130.035ZM25.5296 78.1009H53.2703V58.9537H25.5296V78.1009ZM62.6234 174.203H142.19C141.016 169.95 138.263 167.902 133.63 167.889C112.903 167.848 92.1728 167.83 71.4408 167.834C70.79 167.84 70.14 167.883 69.4942 167.963C66.0147 168.418 63.6476 170.507 62.6234 174.23V174.203ZM121.937 161.187C121.055 157.979 120.269 154.927 119.326 151.922C119.163 151.648 118.937 151.417 118.667 151.249C118.397 151.08 118.09 150.978 117.773 150.953C107.531 150.898 97.2869 150.898 87.0407 150.953C86.722 150.975 86.4134 151.073 86.1408 151.24C85.8681 151.406 85.6394 151.636 85.474 151.909C84.5312 154.914 83.7444 157.972 82.8627 161.187H121.937ZM177.242 108.1L161.384 123.944L165.861 128.692L181.739 112.841L177.242 108.1ZM198.18 25.3529H174.387C175.743 27.2927 176.842 29.0765 178.185 30.65C178.84 31.4064 179.755 31.8903 180.749 32.0066C186.012 32.1286 191.282 32.0744 196.552 32.0608C197.098 32.026 197.642 31.9581 198.18 31.8574V25.3529Z" fill="#A93FFD"/>
<path d="M36.2397 124.1C40.6416 124.1 45.0571 124.1 49.4454 124.1C52.0974 124.1 53.481 125.186 53.5149 127.207C53.5488 129.228 52.1584 130.598 49.4454 130.598C40.5647 130.63 31.6886 130.63 22.817 130.598C19.5275 130.598 17.5877 128.089 19.1884 125.85C20.0537 124.868 21.2731 124.268 22.5796 124.182C27.1443 123.985 31.6954 124.1 36.2397 124.1Z" fill="#A93FFD"/>
<path d="M121.069 12.7778C152.744 12.8999 178.131 39.725 176.28 71.3114C175.883 78.5608 174.058 85.6603 170.907 92.2015C167.757 98.7426 163.344 104.596 157.923 109.425C152.502 114.255 146.179 117.964 139.319 120.341C132.459 122.717 125.196 123.714 117.949 123.273C113.249 123.001 108.583 121.692 103.957 120.614C101.291 119.997 100.267 118.213 100.932 116.28C101.597 114.347 103.326 113.662 105.944 114.462C122.026 119.42 136.975 117.046 150.492 107.049C166.268 95.3895 173.187 75.3199 168.385 56.1795C166.008 46.9195 160.959 38.5634 153.868 32.152C146.776 25.7407 137.955 21.5574 128.503 20.1234C97.8594 15.4705 70.5325 40.3829 72.6148 71.2911C73.5847 85.7244 79.9128 97.5532 91.2533 106.615C93.8374 108.649 94.5021 110.454 93.2134 112.176C91.8569 114.014 89.9035 113.974 87.2244 111.722C69.5151 96.8614 62.2713 77.9244 67.6838 55.4266C73.0963 32.9289 88.0857 19.1535 110.78 14.1072C114.104 13.3747 117.604 13.1984 121.069 12.7778Z" fill="#A93FFD"/>
<path d="M148.112 83.181C146.137 83.1748 144.184 82.7781 142.363 82.0137C140.543 81.2494 138.892 80.1324 137.505 78.7272C136.118 77.322 135.023 75.6562 134.282 73.8259C133.542 71.9956 133.171 70.037 133.19 68.0626C133.249 64.1125 134.853 60.3427 137.659 57.562C140.465 54.7812 144.25 53.2111 148.2 53.1885C150.174 53.1938 152.128 53.5881 153.949 54.3489C155.771 55.1097 157.425 56.222 158.816 57.6223C160.208 59.0225 161.309 60.6833 162.059 62.5097C162.808 64.336 163.19 66.2921 163.183 68.2661C163.188 70.2395 162.801 72.1943 162.044 74.0166C161.286 75.8388 160.174 77.4922 158.771 78.8803C157.369 80.2684 155.704 81.3636 153.874 82.102C152.044 82.8403 150.085 83.2071 148.112 83.181ZM156.678 68.1847C156.676 67.0658 156.454 65.9583 156.023 64.9256C155.592 63.893 154.962 62.9556 154.167 62.1673C153.373 61.3789 152.432 60.7551 151.396 60.3317C150.36 59.9083 149.251 59.6935 148.132 59.6997C145.87 59.7337 143.713 60.6628 142.134 62.2836C140.555 63.9045 139.683 66.0849 139.708 68.3475C139.742 70.5741 140.653 72.6976 142.243 74.2569C143.832 75.8163 145.973 76.6857 148.2 76.6765C149.319 76.6911 150.429 76.4814 151.465 76.0596C152.501 75.6379 153.442 75.0127 154.232 74.2211C155.023 73.4294 155.646 72.4874 156.067 71.4506C156.487 70.4138 156.695 69.3033 156.678 68.1847Z" fill="#A93FFD"/>
<path d="M91.4019 83.1812C87.744 83.2404 84.2112 81.8506 81.574 79.3151C79.8783 77.7212 79.6545 75.7611 80.9364 74.3435C82.2183 72.926 84.0835 72.8785 85.8945 74.4927C87.7054 76.107 89.8623 77.0497 92.2429 76.5275C93.3417 76.2901 94.2777 75.171 95.2544 74.4927C94.5761 73.5974 94.0539 72.363 93.145 71.8814C91.1102 70.803 88.872 70.1587 86.7559 69.243C82.9983 67.6152 81.2009 65.0514 81.3298 61.6872C81.4179 59.8678 82.0756 58.1221 83.2099 56.6969C84.3443 55.2716 85.8979 54.239 87.6511 53.7449C92.0937 52.429 96.0818 53.6092 99.6766 56.2815C100.028 56.5104 100.329 56.8084 100.562 57.1576C100.794 57.5067 100.953 57.8996 101.029 58.3122C101.104 58.7248 101.095 59.1485 101.001 59.5574C100.908 59.9662 100.731 60.3517 100.484 60.6902C99.4732 62.1824 97.6961 62.4604 95.892 61.5109C94.732 60.7926 93.4728 60.2488 92.1548 59.8967C91.0283 59.7263 89.8767 59.9013 88.8517 60.3986C87.4477 61.0768 87.5697 62.4333 89.0076 63.1116C90.4455 63.7898 91.8088 64.2579 93.2196 64.814C93.8232 65.0582 94.4405 65.2617 95.0441 65.4923C100.063 67.5677 102.505 71.3388 101.65 75.6119C100.721 80.1562 96.5838 83.2355 91.4019 83.1812Z" fill="#A93FFD"/>
<path d="M116.321 59.795V64.9226C118.146 64.9226 119.862 64.8819 121.578 64.9226C123.762 64.9905 125.2 66.2792 125.254 68.1037C125.308 70.0503 123.898 71.3389 121.524 71.4068C119.937 71.4543 118.349 71.4542 116.776 71.4814C116.715 71.4814 116.654 71.5424 116.403 71.6713V76.5751C118.221 76.5751 120.133 76.5751 122.046 76.5751C124.576 76.5751 125.987 77.8366 125.939 79.9121C125.892 81.9876 124.583 83.0457 122.107 83.066C119.218 83.066 116.328 83.0999 113.439 83.066C110.895 83.0253 109.742 81.8994 109.729 79.3356C109.697 71.9019 109.697 64.4637 109.729 57.0209C109.729 54.4436 110.861 53.3244 113.439 53.2702C116.401 53.2159 119.362 53.2159 122.324 53.2702C124.603 53.3177 125.905 54.5182 125.939 56.4444C125.98 58.4792 124.684 59.6729 122.249 59.7407C120.269 59.8357 118.356 59.795 116.321 59.795Z" fill="#A93FFD"/>
</svg>
