<svg width="192" height="191" viewBox="0 0 192 191" fill="none" xmlns="http://www.w3.org/2000/svg">
<path d="M96.7888 146.988L105.932 137.872C105.016 136.99 104.08 136.116 103.178 135.213C101.448 133.477 101.326 132.69 102.289 130.466C102.866 129.109 103.402 127.753 103.931 126.396C104.133 125.704 104.562 125.1 105.149 124.681C105.736 124.262 106.446 124.051 107.166 124.083C108.557 124.083 109.947 124.083 111.344 124.083C111.405 124.083 111.459 124.036 111.649 123.954V122.462C111.649 119.071 111.649 115.68 111.697 112.288C111.697 111.407 111.405 111.217 110.612 111.264C109.526 111.332 108.428 111.264 107.336 111.318C106.616 111.373 105.899 111.186 105.298 110.787C104.697 110.388 104.247 109.799 104.019 109.114C103.341 107.527 102.771 105.906 102.038 104.366C101.306 102.827 101.733 101.735 102.717 100.643C103.7 99.5506 104.751 98.4722 105.742 97.4074L96.9244 88.5561C96.0087 89.4378 95.0728 90.3196 94.1639 91.2284C92.5022 92.8698 91.5594 93.0258 89.4636 92.0763C88.1952 91.5065 86.9065 90.9843 85.6178 90.462C83.7391 89.7091 83.0608 88.7867 83.0337 86.7994C83.0337 85.6396 83.0879 84.4798 83.0337 83.32C83.0337 83.0826 82.6674 82.6417 82.4707 82.6417C78.4961 82.601 74.5148 82.6417 70.5402 82.6417C70.4859 82.6417 70.4249 82.696 70.296 82.7638C70.296 83.9779 70.296 85.2326 70.296 86.4806C70.296 88.997 69.7941 89.6617 67.4677 90.5502C66.0655 91.0524 64.6932 91.6344 63.3574 92.2933C61.906 93.0258 60.7394 92.6663 59.6474 91.6625C59.0844 91.1471 58.5622 90.5909 58.0264 90.0483C57.4905 89.5057 57.009 89.0105 56.4799 88.4747L47.6626 97.5023C48.3883 98.2687 49.2497 99.2183 50.145 100.141C51.7118 101.748 51.922 102.718 51.0742 104.766C50.4909 106.17 49.9212 107.581 49.3311 108.992C49.1181 109.68 48.6859 110.279 48.1005 110.697C47.515 111.116 46.8086 111.332 46.089 111.312H41.66V124.049C42.8063 124.049 43.8915 124.049 44.9699 124.049C47.8593 123.981 48.6257 124.511 49.6295 127.203C50.1022 128.51 50.6433 129.792 51.2506 131.042C51.5548 131.58 51.6744 132.203 51.5912 132.815C51.5079 133.428 51.2262 133.996 50.7894 134.433C49.7109 135.641 48.5647 136.78 47.493 137.906L56.3918 146.907C57.321 145.984 58.2231 145.075 59.1455 144.194C60.97 142.444 61.75 142.328 64.0154 143.359C65.4058 143.983 66.8098 144.567 68.2206 145.15C68.8254 145.359 69.3482 145.755 69.7138 146.28C70.0794 146.806 70.269 147.433 70.2553 148.073C70.296 150.657 70.3096 153.241 70.2553 155.832C70.2701 156.257 70.1984 156.68 70.0445 157.076C69.8907 157.472 69.6579 157.833 69.3604 158.136C69.0628 158.439 68.7068 158.679 68.3138 158.84C67.9208 159.001 67.4991 159.081 67.0743 159.075C66.6507 159.066 66.233 158.973 65.8456 158.801C65.4582 158.629 65.1088 158.382 64.8178 158.074C64.5268 157.766 64.3 157.403 64.1506 157.007C64.0012 156.61 63.9321 156.188 63.9475 155.765C63.9 154.333 63.9476 152.909 63.9001 151.485C63.9167 151.123 63.8542 150.762 63.7169 150.427C63.4117 149.81 62.9844 149.491 62.3604 150.121C61.2549 151.22 60.1154 152.285 58.9691 153.37C57.2192 155.073 55.6728 155.175 53.9568 153.479C49.6069 149.197 45.2977 144.879 41.0292 140.524C39.1572 138.618 39.2183 137.255 41.0699 135.281C42.0466 134.25 43.1047 133.246 44.0611 132.229C44.2985 131.971 44.5629 131.388 44.4476 131.239C44.1627 130.857 43.7433 130.597 43.2743 130.513C41.9503 130.445 40.6237 130.445 39.2997 130.513C36.7427 130.601 35.2708 129.265 35.2301 126.742C35.2301 120.638 35.2708 114.533 35.1895 108.429C35.1962 107.551 35.535 106.709 36.1377 106.071C36.7405 105.433 37.5624 105.047 38.4383 104.99C39.9983 104.99 41.5583 104.99 43.1115 104.868C43.5933 104.748 44.0518 104.549 44.468 104.278C44.3405 103.893 44.1602 103.528 43.9322 103.193C42.9826 102.135 41.972 101.158 40.9885 100.093C39.1572 98.1534 39.1233 96.7495 40.9885 94.8571C45.2299 90.557 49.4961 86.2885 53.7872 82.0516C55.605 80.2543 56.9683 80.2746 58.8742 82.0516C59.9458 83.0351 60.9497 84.0864 62.0281 85.0834C62.3062 85.3412 62.9302 85.6803 63.0319 85.5854C63.429 85.268 63.7026 84.8217 63.8051 84.3238C63.9136 82.8791 63.8729 81.4141 63.8797 79.9558C63.8797 77.7854 65.1888 76.4153 67.366 76.4085C73.4974 76.3814 79.6311 76.3814 85.7671 76.4085C88.0528 76.4085 89.2872 77.6633 89.3347 79.9897C89.3347 81.4141 89.3347 82.8452 89.3347 84.2695C89.3347 84.9478 89.5653 85.4158 90.1622 85.5379C90.3564 85.5443 90.5498 85.5108 90.7306 85.4397C90.9114 85.3685 91.0757 85.2611 91.2135 85.1241C92.2648 84.161 93.2482 83.1301 94.2792 82.1398C96.1308 80.356 97.6366 80.2882 99.4543 82.0855C103.777 86.3359 108.073 90.6316 112.341 94.9724C114.111 96.7698 114.064 98.2077 112.341 100.073C111.344 101.138 110.306 102.155 109.303 103.22C109.058 103.485 108.726 104.081 108.794 104.142C109.153 104.557 109.624 104.858 110.15 105.011C111.107 105.085 112.068 105.099 113.026 105.051C113.657 105.051 114.288 105.051 114.912 105.092C115.33 105.086 115.745 105.166 116.131 105.326C116.518 105.487 116.867 105.724 117.158 106.025C117.449 106.325 117.676 106.682 117.824 107.074C117.971 107.465 118.038 107.882 118.018 108.3C118.086 111.013 118.066 113.672 118.066 116.358C118.066 119.803 118.066 123.249 118.066 126.701C118.066 129.414 116.96 130.479 114.247 130.527C112.891 130.527 111.534 130.527 110.178 130.594C109.681 130.655 109.225 130.897 108.896 131.273C108.774 131.422 109.086 132.093 109.357 132.385C110.266 133.389 111.263 134.318 112.206 135.295C114.145 137.33 114.24 138.727 112.273 140.721C108.041 145.021 103.775 149.287 99.4746 153.52C97.7383 155.242 96.2326 155.222 94.4556 153.52C93.3703 152.495 92.3529 151.397 91.2609 150.379C90.9829 150.122 90.3724 149.816 90.2029 149.938C90.0084 150.078 89.8435 150.255 89.7178 150.459C89.592 150.662 89.5079 150.889 89.4703 151.125C89.3957 152.482 89.5382 153.838 89.4703 155.195C89.4233 156.043 89.221 156.875 88.8735 157.65C88.6922 158.067 88.3938 158.422 88.0146 158.673C87.6353 158.923 87.1915 159.058 86.737 159.061C84.3156 159.102 81.901 159.183 79.4796 159.115C77.9807 159.068 76.7056 157.494 76.7191 155.982C76.7346 155.197 77.036 154.445 77.5668 153.867C78.0976 153.288 78.8212 152.924 79.6017 152.841C80.4902 152.787 81.3923 152.801 82.3147 152.841C82.9048 152.841 83.1286 152.645 83.1083 152.027C83.1083 150.766 83.1083 149.511 83.1083 148.25C83.0858 147.684 83.2317 147.124 83.5275 146.641C83.8233 146.158 84.2557 145.774 84.77 145.536C86.6624 144.594 88.6225 143.766 90.5963 142.993C91.1185 142.806 91.6845 142.777 92.2229 142.911C92.7612 143.045 93.2478 143.336 93.6213 143.746C94.6183 144.668 95.6628 145.828 96.7888 146.988Z" fill="#A93FFD"/>
<path d="M12.949 51.9916C13.2285 51.909 13.5025 51.8093 13.7698 51.6931C16.3743 50.3773 18.9584 49.0276 21.5765 47.7457C21.8843 47.62 22.1421 47.3964 22.31 47.1096C22.478 46.8227 22.5468 46.4885 22.5057 46.1586C22.4137 44.0408 22.4749 41.919 22.6888 39.8101C22.9899 37.5611 24.1029 35.4999 25.8181 34.0146C27.5333 32.5292 29.7324 31.7222 32.0013 31.7456C36.6067 31.671 41.2188 31.7456 45.8242 31.7456C49.6089 31.7456 53.3867 31.7456 57.1646 31.7456C60.9425 31.7456 63.8522 33.231 65.7853 36.4934C66.64 37.9653 67.0806 39.641 67.0604 41.3429C67.0604 45.625 67.0468 49.9025 67.0197 54.1755C67.0197 58.1705 64.9849 60.9581 61.5123 62.6809C61.2666 62.767 61.0576 62.934 60.9195 63.1547C60.7814 63.3754 60.7226 63.6364 60.7526 63.895C60.7526 65.7805 60.7526 67.6729 60.7526 69.5652C60.6984 72.4613 58.4398 73.8993 55.8556 72.6309C50.4295 69.945 45.0035 67.232 39.5774 64.4918C38.4219 63.8403 37.1122 63.5123 35.786 63.5423C34.2629 63.6452 32.7339 63.6225 31.2145 63.4745C26.5142 62.9319 23.3874 59.839 22.6549 55.1658C22.6549 54.942 22.5599 54.7182 22.4853 54.379L19.0941 56.095C16.4895 57.3973 13.8986 58.7402 11.2602 59.9815C10.8831 60.1955 10.4645 60.3263 10.0327 60.3652C9.6008 60.404 9.16561 60.35 8.75635 60.2067C8.34708 60.0635 7.97319 59.8343 7.65985 59.5345C7.34651 59.2348 7.10097 58.8714 6.9397 58.4689C6.74092 57.9802 6.64177 57.4568 6.64805 56.9293C6.64805 55.0709 6.64805 53.2192 6.64805 51.3608C6.67313 51.0533 6.59909 50.7458 6.43676 50.4834C6.27443 50.221 6.03234 50.0174 5.74596 49.9025C2.24615 47.9898 0.245312 45.1547 0.252095 41.0242C0.258877 36.8936 0.204617 32.668 0.252095 28.4967C0.31992 24.4272 2.28685 21.5514 5.91552 19.8693C7.09361 19.3415 8.3686 19.0643 9.65952 19.0554C18.0767 18.9808 26.5006 19.0079 34.9178 18.9943C35.3825 18.9596 35.8493 19.0258 36.286 19.1886C36.7227 19.3513 37.1191 19.6067 37.4477 19.9371C38.3295 20.8731 38.7635 21.9719 38.2209 23.2131C37.6783 24.4543 36.8102 25.3496 35.2773 25.3429C29.6749 25.3429 24.0725 25.3429 18.4701 25.3429C15.852 25.3429 13.2339 25.3429 10.6158 25.3429C7.61794 25.3836 6.66163 26.2992 6.61415 29.2564C6.56893 33.0998 6.56893 36.9433 6.61415 40.7867C6.61415 43.0114 7.57726 44.0695 9.73411 44.4222C12.1148 44.8156 12.9219 45.7177 12.9897 48.1391C13.0101 49.4142 12.949 50.669 12.949 51.9916ZM54.3227 64.7632C54.3227 63.1896 54.3227 61.8059 54.3227 60.4155C54.3224 59.7002 54.5612 59.0052 55.0012 58.4412C55.4411 57.8771 56.057 57.4763 56.7509 57.3023C57.1375 57.2006 57.5309 57.1531 57.9243 57.0785C59.742 56.719 60.6373 55.722 60.6373 53.8636C60.6735 49.6584 60.6735 45.4487 60.6373 41.2344C60.6563 40.8172 60.5887 40.4006 60.4387 40.0108C60.2887 39.6209 60.0597 39.2664 59.7659 38.9695C59.4722 38.6726 59.1202 38.4397 58.732 38.2856C58.3438 38.1314 57.9279 38.0592 57.5105 38.0737C48.9555 38.0737 40.4027 38.0737 31.8521 38.0737C31.4599 38.0655 31.0701 38.1362 30.7057 38.2815C30.3413 38.4267 30.0098 38.6437 29.7309 38.9195C29.4519 39.1953 29.2312 39.5243 29.0818 39.887C28.9324 40.2497 28.8573 40.6387 28.861 41.031C28.8067 45.209 28.7728 49.3871 28.8067 53.5583C28.8067 55.939 30.1632 57.1667 32.5914 57.1599C34.2124 57.1599 35.8402 57.0581 37.4613 57.1599C38.5397 57.2003 39.6026 57.4298 40.6016 57.8381C43.0433 58.9369 45.4172 60.1985 47.8115 61.4058C49.9615 62.5656 52.0777 63.644 54.3295 64.7903L54.3227 64.7632Z" fill="#A93FFD"/>
<path d="M171.615 156.246C171.913 155.643 172.123 155.29 172.293 154.89C172.498 154.234 172.911 153.663 173.468 153.262C174.026 152.861 174.699 152.651 175.386 152.665C179.699 152.665 184.006 152.665 188.32 152.72C188.971 152.759 189.592 153.008 190.09 153.43C190.588 153.852 190.935 154.424 191.081 155.06C191.182 155.546 191.237 156.041 191.243 156.538C191.243 159.455 191.176 162.378 191.243 165.294C191.241 166.145 190.91 166.962 190.32 167.575C189.73 168.187 188.926 168.549 188.076 168.584C187.225 168.535 186.424 168.167 185.832 167.553C185.24 166.94 184.9 166.126 184.881 165.274C184.841 163.239 184.881 161.238 184.881 159.115H178.587V184.414H184.881C184.881 182.278 184.956 180.264 184.881 178.256C184.807 176.764 186.652 174.939 187.9 174.946C188.324 174.922 188.749 174.984 189.149 175.128C189.549 175.272 189.915 175.495 190.227 175.783C190.539 176.072 190.79 176.42 190.965 176.808C191.139 177.195 191.234 177.614 191.243 178.039C191.332 181.356 191.298 184.672 191.243 187.982C191.229 188.723 190.926 189.429 190.399 189.95C189.872 190.47 189.163 190.765 188.422 190.77C184.481 190.858 180.527 190.722 176.593 190.932C174.253 191.061 173.086 189.963 172.367 188.023C172.089 187.27 171.689 187.46 171.242 187.779C170.102 188.572 168.997 189.427 167.796 190.125C167.122 190.527 166.361 190.76 165.578 190.804C159.413 190.865 153.241 190.939 147.075 190.844C141.161 190.756 137.335 186.917 137.227 181.003C137.127 175.735 137.127 170.463 137.227 165.186C137.262 162.738 138.249 160.399 139.978 158.666C141.707 156.933 144.044 155.941 146.492 155.901C148.208 155.846 149.931 155.901 151.789 155.901C151.497 155.026 151.28 154.232 150.982 153.479C148.16 146.357 153.017 137.777 161.298 136.814C163.726 136.53 165.035 137.33 165.822 139.67C167.554 144.816 169.281 149.966 171.004 155.121C171.181 155.509 171.385 155.886 171.615 156.246ZM155.099 184.55C157.656 184.55 160.206 184.55 162.757 184.55C163.962 184.608 165.153 184.27 166.148 183.587C167.884 182.373 169.722 181.301 171.459 180.094C171.653 179.942 171.814 179.752 171.93 179.535C172.047 179.317 172.117 179.078 172.137 178.832C172.191 174.085 172.171 169.337 172.184 164.589C172.184 162.195 172.184 162.195 169.851 162.229C167.382 162.229 166.46 161.55 165.666 159.163C164.045 154.225 162.37 149.308 160.756 144.37C160.491 143.57 160.077 143.509 159.542 143.977C158.852 144.54 158.228 145.179 157.683 145.883C156.408 147.68 156.394 149.64 157.127 151.668C157.86 153.696 158.484 155.602 159.162 157.576C159.363 158.033 159.457 158.531 159.437 159.03C159.417 159.53 159.283 160.018 159.046 160.458C158.816 160.956 158.449 161.379 157.988 161.676C157.527 161.974 156.991 162.135 156.442 162.141C153.195 162.141 149.949 162.172 146.702 162.235C146.276 162.207 145.849 162.27 145.45 162.422C145.051 162.573 144.689 162.809 144.389 163.112C144.089 163.416 143.858 163.781 143.712 164.182C143.565 164.583 143.507 165.011 143.542 165.437C143.542 170.673 143.542 175.909 143.48 181.145C143.48 182.712 145.061 184.625 146.872 184.537C149.598 184.469 152.352 184.55 155.099 184.55Z" fill="#A93FFD"/>
<path d="M165.794 3.0484C169.921 3.04376 173.985 4.06211 177.623 6.01238C178.219 6.30984 178.715 6.77671 179.048 7.35458C179.381 7.93244 179.537 8.59566 179.495 9.26126C179.389 9.93655 179.08 10.5636 178.609 11.0582C178.137 11.5528 177.526 11.8914 176.856 12.0286C176.145 12.063 175.435 11.9355 174.781 11.6555C173.024 11.079 171.335 10.2108 169.538 9.84455C166.99 9.32382 164.363 9.33053 161.818 9.86426C159.272 10.398 156.864 11.4474 154.74 12.9479C152.616 14.4483 150.822 16.3679 149.469 18.5883C148.115 20.8088 147.231 23.2829 146.87 25.8582C146.462 28.7058 146.705 31.6088 147.58 34.3491C148.455 37.0893 149.941 39.5956 151.924 41.6793C153.907 43.7631 156.337 45.3702 159.03 46.3797C161.724 47.3893 164.612 47.7751 167.476 47.5082C172.34 47.0983 176.859 44.8313 180.096 41.1776C183.333 37.5239 185.039 32.7642 184.86 27.8862C184.739 25.0268 184.008 22.2262 182.716 19.6725C182.167 18.5398 181.93 17.4546 182.716 16.2812C184.134 14.2464 186.786 14.2465 188.061 16.3558C189.751 19.2584 190.769 22.5034 191.038 25.8514C191.805 33.9905 189.336 41.1054 183.435 46.7689C176.87 53.0767 168.846 55.376 160.029 53.3073C154.454 52.0873 149.461 49.0035 145.874 44.5646C142.287 40.1257 140.32 34.5969 140.298 28.89C140.245 25.5109 140.866 22.1551 142.124 19.0185C143.382 15.8818 145.252 13.0273 147.626 10.6216C149.999 8.21585 152.828 6.30712 155.948 5.00684C159.067 3.70656 162.414 3.04078 165.794 3.0484Z" fill="#A93FFD"/>
<path d="M6.43828 167.295C3.92873 164.039 2.80283 160.451 3.72525 156.389C4.3833 153.377 6.09906 150.701 8.56123 148.846C13.2141 145.231 20.0916 145.584 24.6902 149.626C27.1111 151.859 28.5851 154.935 28.8097 158.22C29.0342 161.506 27.9921 164.753 25.8975 167.295C26.0046 167.406 26.1202 167.508 26.2434 167.6C27.9145 168.608 29.3081 170.016 30.2981 171.698C31.2881 173.379 31.8433 175.281 31.9136 177.231C32.1035 180.704 32.0764 184.19 32.0561 187.67C32.049 188.526 31.7061 189.346 31.1011 189.952C30.496 190.558 29.6772 190.903 28.8208 190.912C27.97 190.856 27.1716 190.481 26.5846 189.863C25.9976 189.244 25.6651 188.427 25.6533 187.575C25.6533 184.455 25.694 181.342 25.6533 178.228C25.6751 176.873 25.2583 175.546 24.4652 174.446C23.672 173.346 22.5448 172.532 21.2514 172.124C20.7445 171.973 20.2201 171.889 19.6914 171.873C17.4057 171.826 15.1132 171.758 12.8275 171.826C12.0111 171.822 11.2022 171.98 10.4473 172.291C9.69231 172.601 9.0063 173.058 8.42876 173.635C7.85122 174.212 7.39358 174.897 7.08222 175.652C6.77087 176.407 6.61194 177.215 6.61464 178.032C6.54003 180.148 6.61464 182.264 6.61464 184.536H7.67272C10.4264 184.536 13.1802 184.482 15.9271 184.604C16.7998 184.683 17.6323 185.008 18.3281 185.54C18.8059 185.889 19.1471 186.393 19.2932 186.966C19.4392 187.539 19.381 188.146 19.1285 188.68C18.6469 189.854 17.8737 190.776 16.4155 190.783C12.0407 190.783 7.66592 190.885 3.29116 190.858C2.91259 190.881 2.53333 190.827 2.17608 190.699C1.81883 190.572 1.49099 190.374 1.21226 190.117C0.933528 189.859 0.709626 189.549 0.554039 189.203C0.398452 188.857 0.314386 188.483 0.306854 188.104C0.163067 184.067 0.23325 180.026 0.517112 175.997C0.842676 172.477 2.89098 169.737 5.82783 167.729L6.43828 167.295ZM9.82957 159.068C9.82883 160.724 10.4737 162.316 11.6273 163.505C12.781 164.694 14.3525 165.387 16.0085 165.437C16.863 165.451 17.7117 165.294 18.5047 164.976C19.2977 164.657 20.0189 164.183 20.6257 163.581C21.2325 162.979 21.7127 162.262 22.038 161.472C22.3633 160.682 22.5271 159.834 22.5198 158.98C22.4894 157.308 21.7993 155.716 20.5999 154.551C19.4005 153.385 17.7891 152.742 16.117 152.76C15.2862 152.748 14.4615 152.903 13.6913 153.215C12.9212 153.526 12.2213 153.989 11.6328 154.576C11.0444 155.162 10.5793 155.861 10.2649 156.63C9.95055 157.399 9.79332 158.223 9.80245 159.054L9.82957 159.068Z" fill="#A93FFD"/>
<path d="M127.574 57.2005H121.205C121.205 58.3535 121.164 59.4658 121.205 60.5918C121.323 61.4862 121.12 62.3936 120.632 63.1524C120.144 63.9113 119.402 64.4723 118.54 64.7359C117.063 65.392 115.663 66.211 114.368 67.1776C112.666 68.3578 111.696 68.5341 109.892 67.4625C109.003 66.9538 108.128 66.4112 107.26 65.8686C106.853 65.6109 106.582 65.5905 106.311 66.0789C105.551 67.4761 104.771 68.8597 103.957 70.223C103.584 70.8538 103.543 71.2065 104.317 71.5795C105.451 72.1291 106.528 72.7903 107.531 73.5532C107.852 73.7786 108.124 74.0657 108.332 74.3976C108.54 74.7295 108.68 75.0996 108.743 75.4862C108.806 75.8728 108.792 76.2681 108.7 76.6489C108.608 77.0298 108.442 77.3885 108.21 77.7042C107.423 78.9522 105.802 79.6372 104.493 78.9386C101.922 77.5821 99.4127 76.0831 96.971 74.5028C96.4154 74.1164 96.03 73.5309 95.8948 72.8678C95.7597 72.2047 95.8852 71.515 96.2452 70.942C98.3953 67.1369 100.573 63.3455 102.824 59.6015C103.781 58.0008 105.273 57.621 106.941 58.4485C108.298 59.1267 109.614 59.9203 110.902 60.7206C111.134 60.8607 111.399 60.9348 111.669 60.9348C111.939 60.9348 112.204 60.8607 112.435 60.7206C114.579 59.9067 115.148 58.3942 114.755 56.2916C114.701 55.696 114.701 55.0966 114.755 54.501C114.721 54.0209 114.787 53.5389 114.95 53.0859C115.113 52.633 115.369 52.219 115.7 51.8704C116.032 51.5219 116.433 51.2464 116.878 51.0617C117.322 50.877 117.801 50.7871 118.282 50.7977C122.46 50.7977 126.638 50.7977 130.809 50.852C131.601 50.8465 132.362 51.1544 132.928 51.7084C133.493 52.2624 133.817 53.0176 133.827 53.8092C133.909 55.3963 133.943 56.9902 133.875 58.557C133.827 59.6693 134.75 59.744 135.347 60.022C136.086 60.3612 136.615 61.521 137.768 60.7003C138.921 59.8796 140.135 59.242 141.356 58.5706C143.269 57.5193 144.869 57.8381 145.975 59.6829C148.193 63.3658 150.329 67.1437 152.425 70.8674C153.307 72.4409 152.683 74.0348 150.899 75.1404C149.889 75.7644 148.864 76.3341 147.779 76.8835C146.925 77.3312 146.219 77.8059 146.653 78.9183C146.66 78.9496 146.66 78.9819 146.653 79.0132C146.023 80.9259 147.176 81.7263 148.688 82.4045C149.548 82.8321 150.375 83.3218 151.164 83.8695C152.71 84.8801 153.198 86.4537 152.459 87.8848C151.544 89.6551 150.011 90.3265 148.234 89.4109C145.819 88.1697 143.486 86.7318 141.2 85.3413C140.095 84.6631 139.918 83.5304 139.959 82.2892C140.034 80.2544 140.074 78.2604 139.959 76.2595C139.88 75.7684 139.935 75.2651 140.119 74.8029C140.303 74.3407 140.609 73.937 141.003 73.6346C142.115 72.8588 143.27 72.1478 144.463 71.5049C145.005 71.2065 145.229 71.003 144.863 70.3858C144.042 68.9886 143.255 67.5642 142.509 66.1331C142.211 65.5634 141.912 65.543 141.41 65.8415C140.332 66.5197 139.24 67.1234 138.134 67.7202C137.624 67.9988 137.043 68.1221 136.464 68.0751C135.884 68.0281 135.331 67.8128 134.872 67.4557C133.122 66.3366 131.311 65.3056 129.487 64.3086C128.89 64.0534 128.385 63.6229 128.039 63.0742C127.692 62.5255 127.521 61.8845 127.547 61.2361C127.594 59.9813 127.574 58.6655 127.574 57.2005Z" fill="#A93FFD"/>
<path d="M95.6838 4.45921C96.6641 3.58107 97.6897 2.75472 98.7562 1.98356C100.333 0.963138 102.121 0.315391 103.985 0.0896224C105.85 -0.136146 107.741 0.0660018 109.516 0.680613C111.29 1.29523 112.901 2.30614 114.227 3.63665C115.552 4.96715 116.556 6.58227 117.164 8.35919C118.907 13.5546 117.537 18.0108 113.732 21.809C108.672 26.8688 103.604 31.9218 98.5257 36.968C98.3629 37.1308 98.1865 37.2868 98.017 37.4428C96.4434 38.8604 94.9851 38.9146 93.4591 37.4428C89.9932 34.0515 86.5747 30.6602 83.1495 27.2215C80.9927 25.0646 78.7748 22.962 76.7333 20.7034C75.0582 18.864 73.9826 16.5583 73.6495 14.0929C73.3163 11.6274 73.7413 9.119 74.868 6.90092C76.0327 4.52822 77.9312 2.59422 80.282 1.38586C82.6327 0.1775 85.3104 -0.240849 87.9177 0.192951C90.7049 0.563029 93.2699 1.91161 95.1547 3.99796C95.3107 4.14718 95.4938 4.28965 95.6838 4.45921ZM95.6838 30.6738C96.5655 29.8124 97.3726 29.046 98.1662 28.2524C102.032 24.3864 105.912 20.5271 109.744 16.6339C110.496 15.8933 111.022 14.9548 111.262 13.9272C111.502 12.8996 111.446 11.825 111.101 10.828C110.811 9.81041 110.259 8.88699 109.499 8.15096C108.739 7.41493 107.799 6.8923 106.773 6.63573C105.746 6.37916 104.67 6.39777 103.654 6.68963C102.637 6.98149 101.715 7.53626 100.981 8.29809C99.9364 9.31547 98.9462 10.3736 97.8542 11.3503C97.5881 11.6381 97.2667 11.8694 96.9093 12.0302C96.5518 12.1911 96.1656 12.2782 95.7737 12.2865C95.3818 12.2947 94.9923 12.2238 94.6284 12.0781C94.2645 11.9324 93.9337 11.7149 93.6558 11.4385C93.0725 10.9501 92.5366 10.4075 91.9805 9.88523C91.1888 9.04121 90.3485 8.24406 89.4641 7.49779C88.6148 6.79277 87.5771 6.35268 86.4799 6.2321C85.3827 6.11153 84.2742 6.31578 83.292 6.81954C82.258 7.28965 81.3803 8.04599 80.7625 8.99911C80.1447 9.95224 79.8127 11.0623 79.8057 12.1981C79.7721 13.0471 79.9268 13.893 80.2587 14.6751C80.5905 15.4573 81.0913 16.1563 81.7252 16.7221C85.8761 20.9137 90.0429 25.0895 94.2255 29.2495C94.7274 29.7582 95.2293 30.2194 95.7041 30.6738H95.6838Z" fill="#A93FFD"/>
<path d="M93.7712 187.731C77.493 187.629 60.0483 182.434 44.4755 171.453C41.559 169.418 38.8392 167.044 36.1261 164.718C34.4983 163.321 34.4576 161.605 35.7531 160.18C36.9468 158.865 38.7442 158.763 40.2906 160.085C44.3522 163.649 48.7189 166.849 53.3403 169.649C61.3844 174.436 70.1816 177.826 79.3582 179.673C84.8819 180.819 90.5108 181.38 96.1519 181.349C106.022 181.293 115.803 179.471 125.032 175.97C125.617 175.74 126.215 175.543 126.823 175.38C127.206 175.267 127.607 175.232 128.004 175.276C128.401 175.32 128.785 175.443 129.134 175.636C129.483 175.83 129.79 176.091 130.037 176.405C130.284 176.718 130.466 177.078 130.573 177.462C130.822 178.213 130.773 179.031 130.436 179.747C130.099 180.462 129.5 181.021 128.762 181.308C125.371 182.509 122.027 183.763 118.589 184.699C111.358 186.619 103.959 187.602 93.7712 187.731Z" fill="#A93FFD"/>
<path d="M76.5692 98.581C78.8918 98.5642 81.1955 98.9996 83.3518 99.863C83.8516 100.029 84.3023 100.316 84.663 100.7C85.0237 101.083 85.2832 101.551 85.4178 102.06C85.5525 102.569 85.5581 103.103 85.4342 103.615C85.3103 104.127 85.0609 104.599 84.7083 104.991C84.3089 105.455 83.777 105.785 83.184 105.938C82.5911 106.091 81.9656 106.058 81.3916 105.845C78.6112 104.787 75.5591 104.678 72.7099 105.533C64.5709 108.07 61.2203 118.176 66.2733 125.047C67.5807 126.891 69.3577 128.352 71.42 129.277C73.4822 130.203 75.7547 130.561 78.0015 130.312C80.2484 130.064 82.388 129.219 84.1982 127.865C86.0084 126.511 87.4233 124.697 88.2963 122.612C89.5396 119.828 89.6802 116.677 88.6897 113.794C88.337 112.729 87.9097 111.699 88.5676 110.552C88.814 110.023 89.1997 109.57 89.6836 109.242C90.1674 108.915 90.7312 108.725 91.3145 108.694C91.9006 108.657 92.4842 108.797 92.9897 109.096C93.4952 109.394 93.8993 109.838 94.1496 110.369C95.154 112.436 95.6956 114.698 95.7367 116.996C95.9354 121.633 94.4421 126.185 91.5349 129.803C88.6277 133.421 84.5047 135.86 79.9334 136.665C66.7684 139.148 55.1499 127.441 57.6865 114.283C58.4893 109.865 60.8213 105.87 64.2738 103C67.7263 100.129 72.0791 98.5644 76.5692 98.581Z" fill="#A93FFD"/>
<path d="M184.894 96.6206C184.622 111.59 182.255 122.964 177.589 133.85C177.073 135.051 176.632 136.339 175.276 136.95C174.721 137.224 174.094 137.314 173.484 137.208C172.874 137.102 172.314 136.805 171.885 136.36C171.409 135.942 171.072 135.389 170.918 134.775C170.764 134.16 170.801 133.514 171.023 132.921C171.776 131.015 172.61 129.143 173.336 127.224C175.671 121.017 177.214 114.54 177.928 107.948C179.639 93.2588 177.36 78.3804 171.328 64.8782C170.908 63.9151 170.352 62.9723 170.711 61.8396C171.132 60.5238 172.4 59.364 173.662 59.3775C174.301 59.3492 174.933 59.5216 175.47 59.8707C176.006 60.2198 176.42 60.728 176.653 61.3241C178.281 65.5564 180.044 69.7548 181.353 74.0821C183.59 81.3906 184.781 88.9785 184.894 96.6206Z" fill="#A93FFD"/>
<path d="M18.7968 140.165C18.2026 140.172 17.6201 139.999 17.1252 139.67C16.6304 139.341 16.2462 138.871 16.0227 138.32C14.422 134.691 12.7128 131.09 11.397 127.353C7.64693 116.542 6.05012 105.101 6.69666 93.6771C6.9492 88.2745 7.76066 82.9125 9.11805 77.677C9.98621 74.3536 11.0782 71.0844 12.1295 67.8084C12.2365 67.4162 12.4227 67.0502 12.6766 66.7327C12.9304 66.4152 13.2466 66.1531 13.6057 65.9625C13.9647 65.7719 14.3589 65.6567 14.7641 65.6243C15.1693 65.5918 15.5768 65.6426 15.9616 65.7736C16.3775 65.8868 16.7655 66.0848 17.1013 66.3551C17.437 66.6255 17.7132 66.9623 17.9125 67.3444C18.1119 67.7266 18.2301 68.1458 18.2597 68.5758C18.2893 69.0058 18.2297 69.4373 18.0846 69.8432C16.8841 74.0145 15.4462 78.1315 14.5916 82.3706C11.5525 97.1311 12.6845 112.446 17.8608 126.6C18.9257 129.557 20.2957 132.399 21.5437 135.295C22.5272 137.581 21.4487 139.778 19.1562 140.104C19.0206 140.117 18.8917 140.124 18.7968 140.165Z" fill="#A93FFD"/>
<path d="M156.21 28.5032C156.21 25.3832 156.21 22.27 156.21 19.15C156.21 16.5794 158.503 15.0805 160.822 16.2267C162.749 17.1763 164.56 18.3564 166.404 19.462C169.818 21.5013 173.223 23.5542 176.619 25.6206C177.867 26.3802 178.654 27.4315 178.464 29.0119C178.321 30.2667 177.453 30.9788 176.429 31.5689C173.449 33.3776 170.467 35.1705 167.483 36.9475C165.448 38.1819 163.373 39.3689 161.379 40.6508C160.869 41.0325 160.258 41.2569 159.623 41.2964C158.987 41.336 158.353 41.1889 157.8 40.8733C157.247 40.5578 156.798 40.0875 156.508 39.5201C156.218 38.9528 156.101 38.3133 156.17 37.68C156.271 36.1675 156.17 34.6346 156.17 33.1085L156.21 28.5032ZM162.627 32.4642L169.104 28.5168L162.627 24.6439V32.4642Z" fill="#A93FFD"/>
<path d="M114.85 79.3387C114.889 76.9 115.858 74.5682 117.558 72.8198C119.259 71.0713 121.563 70.0381 123.999 69.9313C125.287 69.8839 126.572 70.0964 127.776 70.5562C128.98 71.016 130.079 71.7136 131.008 72.6074C131.936 73.5012 132.675 74.5729 133.181 75.7585C133.686 76.9441 133.948 78.2194 133.949 79.5083C133.907 81.9826 132.923 84.3478 131.198 86.1221C129.473 87.8964 127.136 88.9463 124.664 89.0581C123.378 89.0771 122.101 88.8393 120.908 88.3588C119.715 87.8782 118.63 87.1646 117.716 86.2595C116.802 85.3544 116.078 84.2762 115.586 83.0878C115.093 81.8995 114.843 80.6249 114.85 79.3387ZM124.42 82.6621C125.273 82.6183 126.076 82.244 126.658 81.6187C127.241 80.9933 127.557 80.1659 127.54 79.3116C127.502 78.5108 127.157 77.7553 126.578 77.2011C125.999 76.647 125.228 76.3366 124.427 76.334C124.011 76.3205 123.598 76.3895 123.209 76.537C122.821 76.6845 122.466 76.9075 122.164 77.1933C121.863 77.4791 121.621 77.8219 121.453 78.2018C121.284 78.5817 121.193 78.9912 121.185 79.4065C121.205 80.26 121.552 81.0733 122.154 81.6789C122.756 82.2845 123.567 82.6364 124.42 82.6621Z" fill="#A93FFD"/>
<path d="M127.561 101.796C127.561 100.439 127.615 99.2388 127.561 98.0586C127.466 96.3223 128.423 95.2913 129.779 94.491C131.461 93.5007 133.17 92.5783 134.812 91.5135C135.356 91.1025 136.012 90.8652 136.693 90.8325C137.374 90.7998 138.049 90.9733 138.63 91.3303C140.665 92.4766 142.652 93.6296 144.626 94.8437C146.105 95.7593 146.715 97.0819 146.376 98.3096C146.27 98.8339 146.036 99.3239 145.694 99.7357C145.353 100.148 144.915 100.469 144.419 100.67C143.924 100.872 143.386 100.947 142.854 100.89C142.322 100.834 141.812 100.646 141.37 100.344L137.681 98.2011C137.599 98.1459 137.513 98.0982 137.423 98.0586C136.446 97.7059 133.93 99.5237 133.937 100.568C133.937 101.925 133.991 103.356 133.937 104.739C133.876 106.774 132.804 107.968 130.756 108.063C128.579 108.165 126.388 108.165 124.204 108.063C123.398 108.037 122.633 107.699 122.07 107.121C121.507 106.543 121.19 105.77 121.186 104.963C121.2 104.16 121.513 103.39 122.063 102.805C122.613 102.219 123.362 101.86 124.163 101.796C125.242 101.721 126.334 101.796 127.561 101.796Z" fill="#A93FFD"/>
<path d="M130.735 22.1479C129.885 22.0972 129.084 21.7351 128.485 21.1306C127.885 20.5262 127.53 19.722 127.486 18.8719C127.583 18.0611 127.954 17.308 128.54 16.7388C129.125 16.1695 129.888 15.8187 130.701 15.7451C131.536 15.7764 132.33 16.1149 132.931 16.6957C133.532 17.2765 133.897 18.0587 133.957 18.8922C133.935 19.743 133.59 20.5534 132.991 21.1583C132.392 21.7632 131.586 22.1171 130.735 22.1479Z" fill="#A93FFD"/>
<path d="M67.1068 22.0529C67.0696 22.8829 66.7366 23.6721 66.1681 24.2779C65.5996 24.8838 64.8331 25.2662 64.0072 25.356C63.1379 25.3508 62.3051 25.0061 61.6867 24.3952C61.0683 23.7844 60.7132 22.9559 60.6973 22.0868C60.7789 21.2775 61.1421 20.5225 61.7234 19.9536C62.3048 19.3846 63.0674 19.0378 63.8783 18.9736C64.6911 19.0298 65.4587 19.3683 66.0482 19.9307C66.6378 20.493 67.0122 21.2437 67.1068 22.0529Z" fill="#A93FFD"/>
</svg>
